<?xml version="1.0" encoding="utf-8"?>
<!-- Generator: Adobe Illustrator 25.0.1, SVG Export Plug-In . SVG Version: 6.00 Build 0)  -->
<svg version="1.1" id="b582dbfc-ed60-4217-aa06-1e10ec960023"
	 xmlns="http://www.w3.org/2000/svg" xmlns:xlink="http://www.w3.org/1999/xlink" x="0px" y="0px" viewBox="0 0 934 678.4"
	 style="enable-background:new 0 0 934 678.4;" xml:space="preserve">
<style type="text/css">
	.st0{fill:#3F3D56;}
	.st1{fill:#A0616A;}
	.st2{fill:#2F2E41;}
	.st3{fill:#D0CDE1;}
	.st4{fill:#F2F2F2;}
	.st5{fill:#71C6FF;}
	.st6{opacity:0.1;enable-background:new    ;}
</style>
<ellipse class="st0" cx="426" cy="645.9" rx="416" ry="32.5"/>
<polygon class="st1" points="779.4,585.5 783.3,614.1 756,616.7 759.9,581.6 "/>
<path class="st1" d="M650.7,193c0,0,2.6,35.1,2.6,36.4s-18.2,91-18.2,91s-26,49.4,0,48.1s18.2-46.8,18.2-46.8l27.3-75.4L668.9,193
	L650.7,193z"/>
<polygon class="st1" points="693.6,585.5 689.7,614.1 717,616.7 713.1,581.6 "/>
<path class="st2" d="M663.7,317.8l-6.5,9.1c0,0-3.9,39,0,52s11.7,72.8,11.7,76.7s1.3,6.5,0,7.8s-5.2,1.3-2.6,3.9s2.6,10.4,2.6,10.4
	v6.5l16.9,96.2c0,0-10.4,11.7-2.6,11.7s36.4,0,35.1-13l-2.6-1.3c0,0-3.9-85.8-2.6-89.7s0-11.7,0-11.7s-2.6-3.9,0-5.2
	s2.6-11.7,2.6-11.7l11.7-79.3c0,0,10.4,53.3,16.9,58.5s5.2,18.2,5.2,18.2l5.2,114.4c0,0-5.2,13,0,15.6s27.3,11.7,28.6-1.3
	s7.8-126.1,7.8-131.3s-1.3-7.8,0-11.7s-1.3-3.9,0-3.9s-2.6-3.9-2.6-6.5v-63.7c0,0,1.3-13,2.6-15.6s-1.3-5.2,0-9.1
	s-2.6-16.9-2.6-16.9L730,311.3L663.7,317.8z"/>
<path class="st2" d="M709.2,608.9c0,0,6.5-6.5-2.6-6.5c-5.8,0.1-11.6,1.4-16.9,3.9l-6.5,23.4c0,0-26.6,21.4,3.2,18.8
	s25.3-0.6,25.3-0.6s9.1-2.6,10.4-5.2s-2.6-40.3-2.6-40.3S715.7,612.8,709.2,608.9z"/>
<path class="st2" d="M765.1,608.9c0,0-6.5-6.5,2.6-6.5c5.8,0.1,11.6,1.4,16.9,3.9l6.5,23.4c0,0,26.6,21.4-3.2,18.8
	s-29.2-0.6-29.2-0.6s-9.1-2.6-10.4-5.2s6.5-40.3,6.5-40.3S758.6,612.8,765.1,608.9z"/>
<circle class="st1" cx="680.6" cy="56.5" r="33.8"/>
<path class="st1" d="M668.9,81.2c0,0,5.2,26,5.2,29.9s22.1,15.6,22.1,15.6l24.7-31.2c0,0-15.6-22.1-15.6-27.3L668.9,81.2z"/>
<path class="st3" d="M688.4,115c0,0-11.3-3-14.8-8c0,0-35.9,35.3-35.9,41.8l28.6,50.7c0,0,0,18.2,2.6,19.5s0,0,0,5.2
	s-7.8,39-5.2,44.2s5.2,1.3,2.6,9.1s-9.1,49.4-9.1,49.4s23.4-7.8,57.2,5.2s74.1-5.2,74.1-5.2s-10.4-23.4-7.8-31.2s-6.5-22.1-6.5-22.1
	L767.7,154c0,0,9.1-53.3,2.6-55.9l-13-5.2l-41.6-5.1C715.7,87.8,705.3,113.7,688.4,115z"/>
<path class="st3" d="M650.7,139.7l-13,9.1c0,0-6.5,19.5,0,28.6s9.1,22.1,9.1,22.1l26-2.6L650.7,139.7z"/>
<path class="st2" d="M654.8,20.8l-5.9-2.3c0,0,12.3-13.5,29.3-12.3l-4.8-5.3c0,0,11.7-4.7,22.4,7.6c5.6,6.5,12.1,14.1,16.1,22.7h6.3
	l-2.6,5.8l9.2,5.8l-9.4-1c0.9,5,0.6,10.1-0.9,14.9l0.3,4.6c0,0-10.9-16.9-10.9-19.2v5.9c0,0-5.9-5.3-5.9-8.8l-3.2,4.1l-1.6-6.5
	l-19.7,6.5l3.2-5.3l-12.3,1.8l4.8-6.5c0,0-13.9,7.6-14.4,14.1c-0.5,6.5-7.5,14.7-7.5,14.7l-3.2-5.9C644.1,56,639.3,29.6,654.8,20.8z
	"/>
<rect x="146.2" y="282.8" class="st4" width="516.5" height="362.8"/>
<rect x="189.6" y="421.3" class="st0" width="129.7" height="226.4"/>
<rect x="213.6" y="434.8" class="st4" width="34.9" height="32.6"/>
<rect x="260.4" y="434.8" class="st4" width="34.9" height="32.6"/>
<rect x="213.6" y="479.2" class="st4" width="34.9" height="33.7"/>
<rect x="260.4" y="479.2" class="st4" width="34.9" height="33.7"/>
<circle class="st5" cx="302.8" cy="549.7" r="8.2"/>
<rect x="362.8" y="399.8" class="st0" width="256.4" height="215.1"/>
<polygon class="st0" points="716.6,351.1 92.2,351.1 133.8,264.1 143.1,244.6 155.3,219.1 164.7,199.6 175.5,177.1 667.4,177.1 
	673.8,199.6 679.3,219.1 686.5,244.6 692,264.1 "/>
<rect x="371.8" y="489" class="st5" width="9" height="55.5"/>
<rect x="371.8" y="497.2" class="st4" width="9" height="6.7"/>
<rect x="371.8" y="529.4" class="st4" width="9" height="6.7"/>
<rect x="385.3" y="489" class="st5" width="21.7" height="55.5"/>
<rect x="385.3" y="497.2" class="st4" width="21.7" height="6.7"/>
<rect x="385.3" y="529.4" class="st4" width="21.7" height="6.7"/>
<rect x="412.3" y="489" class="st5" width="9" height="55.5"/>
<rect x="412.3" y="497.2" class="st4" width="9" height="6.7"/>
<rect x="412.3" y="529.4" class="st4" width="9" height="6.7"/>
<rect x="425.8" y="489" class="st5" width="9" height="55.5"/>
<rect x="425.8" y="497.2" class="st4" width="9" height="6.7"/>
<rect x="425.8" y="529.4" class="st4" width="9" height="6.7"/>
<rect x="444.5" y="489" transform="matrix(0.9357 -0.3527 0.3527 0.9357 -153.3953 191.5841)" class="st5" width="9" height="55.5"/>
<rect x="438.8" y="498.2" transform="matrix(0.9357 -0.3527 0.3527 0.9357 -148.4415 188.6098)" class="st4" width="9" height="6.7"/>
<rect x="450.2" y="528.4" transform="matrix(0.9357 -0.3527 0.3527 0.9357 -158.3491 194.5584)" class="st4" width="9" height="6.7"/>
<rect x="589.2" y="489" class="st5" width="21.7" height="55.5"/>
<rect x="589.2" y="497.2" class="st4" width="21.7" height="6.7"/>
<rect x="589.2" y="529.4" class="st4" width="21.7" height="6.7"/>
<rect x="574.9" y="489" class="st5" width="9" height="55.5"/>
<rect x="574.9" y="497.2" class="st4" width="9" height="6.7"/>
<rect x="574.9" y="529.4" class="st4" width="9" height="6.7"/>
<rect x="561.4" y="489" class="st5" width="9" height="55.5"/>
<rect x="561.4" y="497.2" class="st4" width="9" height="6.7"/>
<rect x="561.4" y="529.4" class="st4" width="9" height="6.7"/>
<rect x="519.5" y="512.2" transform="matrix(0.3527 -0.9357 0.9357 0.3527 -129.3058 846.4741)" class="st5" width="55.5" height="9"/>
<rect x="549.5" y="497.1" transform="matrix(0.3527 -0.9357 0.9357 0.3527 -111.5154 842.0322)" class="st4" width="6.7" height="9"/>
<rect x="538.1" y="527.3" transform="matrix(0.3527 -0.9357 0.9357 0.3527 -147.0962 850.916)" class="st4" width="6.7" height="9"/>
<rect x="362.8" y="544.4" class="st4" width="256.4" height="5.2"/>
<rect x="474.5" y="489" class="st5" width="47.2" height="55.5"/>
<rect x="486.1" y="501" class="st4" width="24" height="10.5"/>
<rect x="488.7" y="399.8" class="st4" width="4.5" height="48"/>
<circle class="st4" cx="491" cy="447.7" r="7.5"/>
<polygon class="st5" points="679.3,219.1 155.3,219.1 164.7,199.6 673.8,199.6 "/>
<polygon class="st5" points="692,264.1 133.8,264.1 143.1,244.6 686.5,244.6 "/>
<path class="st1" d="M746.9,151.4c0,0-7.5,19.4-6,38.5c0.3,3.4,1.4,6.7,3.4,9.6l0,0l-92.2,43.8c0,0-41.7,4.3-31.3,22.5
	s48.1-9.1,48.1-9.1s98.8-14.3,106.6-28.6s13-74.1,13-74.1L746.9,151.4z"/>
<path class="st3" d="M750.8,98.1h19.5c0,0,14.3,2.6,18.2,28.6s7.8,32.5,3.9,32.5s-50.7-1.3-50.7-2.6S750.8,98.1,750.8,98.1z"/>
<circle class="st5" cx="100" cy="386.4" r="100"/>
<circle class="st6" cx="100" cy="386.4" r="86"/>
<path class="st4" d="M95.9,437.1v-12.5c-6.3-0.1-12.9-2.4-16.7-5.5l2.6-8.3c4.5,3.4,10,5.3,15.7,5.3c7.7,0,13-5.1,13-12.1
	c0-6.8-4.3-11-12.3-14.7c-11.1-5-18-10.7-18-21.4c0-10.3,6.4-18.1,16.5-20v-12.5h6.8v12c5,0.1,10,1.6,14.2,4.3l-2.7,8.2
	c-4-2.8-8.8-4.2-13.7-4.2c-8.4,0-11.6,5.7-11.6,10.7c0,6.4,4,9.7,13.5,14.1c11.2,5.2,16.9,11.6,16.9,22.7c0,9.8-6,19-17.2,21.1v12.9
	H95.9z"/>
</svg>
