<?xml version="1.0" encoding="utf-8"?>
<!-- Generator: Adobe Illustrator 25.0.1, SVG Export Plug-In . SVG Version: 6.00 Build 0)  -->
<svg version="1.1" id="Camada_1" xmlns="http://www.w3.org/2000/svg" xmlns:xlink="http://www.w3.org/1999/xlink" x="0px" y="0px"
	 viewBox="0 0 2000 1000" style="enable-background:new 0 0 2000 1000;" xml:space="preserve">
<style type="text/css">
	.st0{fill-rule:evenodd;clip-rule:evenodd;fill:#0F265C;}
	.st1{fill-rule:evenodd;clip-rule:evenodd;fill:#FFFFFF;}
	.st2{fill-rule:evenodd;clip-rule:evenodd;fill:#6E7071;}
	.st3{fill-rule:evenodd;clip-rule:evenodd;fill:#002A5F;}
	.st4{fill:#0F265C;}
	.st5{fill:none;stroke:#FFFFFF;stroke-width:0.162;}
</style>
<g>
	<g>
		<rect x="411" y="541.1" class="st1" width="1521.07" height="68.43"/>
		<g>
			<path class="st0" d="M1762.28,591.8v0.77h15.7v-0.77c-0.81,0-1.53-0.02-2.16-0.09c-0.61-0.07-1.15-0.23-1.58-0.51
				c-0.45-0.27-0.78-0.67-1-1.21c-0.22-0.53-0.33-1.26-0.33-2.17v-31.63h-5.47v31.63c0,0.91-0.12,1.64-0.36,2.17
				c-0.23,0.55-0.59,0.94-1.04,1.21c-0.45,0.28-1.01,0.44-1.65,0.51C1763.75,591.77,1763.04,591.8,1762.28,591.8z"/>
			<path class="st4" d="M1762.28,591.8v0.77h15.7v-0.77c-0.81,0-1.53-0.02-2.16-0.09c-0.61-0.07-1.15-0.23-1.58-0.51
				c-0.45-0.27-0.78-0.67-1-1.21c-0.22-0.53-0.33-1.26-0.33-2.17v-31.63h-5.47v31.63c0,0.91-0.12,1.64-0.36,2.17
				c-0.23,0.55-0.59,0.94-1.04,1.21c-0.45,0.28-1.01,0.44-1.65,0.51C1763.75,591.77,1763.04,591.8,1762.28,591.8z"/>
			<path class="st0" d="M1726.03,584.48l-0.41-0.36c-1.52,2.12-3.34,3.78-5.46,4.97c-2.13,1.2-4.52,1.8-7.15,1.8
				c-2.36,0-4.4-0.46-6.1-1.39c-1.71-0.93-3.1-2.16-4.18-3.69c-1.08-1.53-1.88-3.29-2.41-5.25c-0.52-1.98-0.78-4.02-0.78-6.14
				c0-2.02,0.23-4.03,0.71-6.03c0.48-2.01,1.23-3.82,2.28-5.43c1.05-1.61,2.39-2.93,4.03-3.94c1.64-1.01,3.62-1.52,5.95-1.52
				c1.53,0,2.98,0.26,4.35,0.79c1.39,0.52,2.63,1.25,3.73,2.19c1.1,0.94,2.01,2.05,2.74,3.33c0.72,1.28,1.19,2.67,1.39,4.19
				l0.51-0.1v-7.58l-0.51-0.05l-0.41,0.65l-0.3,0.21c-0.41-0.04-0.82-0.34-1.24-0.92s-1.04-1.19-1.83-1.84
				c-0.79-0.66-1.87-1.26-3.22-1.79c-1.35-0.55-3.14-0.82-5.36-0.82c-2.63,0-5.09,0.48-7.37,1.42c-2.28,0.94-4.27,2.24-5.98,3.86
				c-1.71,1.64-3.04,3.57-4.03,5.84c-0.99,2.25-1.47,4.7-1.47,7.32c0,2.53,0.44,4.93,1.32,7.21c0.87,2.26,2.1,4.26,3.7,5.98
				c1.58,1.72,3.47,3.08,5.65,4.09c2.17,1.01,4.56,1.52,7.17,1.52c3.1,0,5.92-0.77,8.46-2.29
				C1722.34,589.18,1724.41,587.1,1726.03,584.48z"/>
			<path class="st4" d="M1726.03,584.48l-0.41-0.36c-1.52,2.12-3.34,3.78-5.46,4.97c-2.13,1.2-4.52,1.8-7.15,1.8
				c-2.36,0-4.4-0.46-6.1-1.39c-1.71-0.93-3.1-2.16-4.18-3.69c-1.08-1.53-1.88-3.29-2.41-5.25c-0.52-1.98-0.78-4.02-0.78-6.14
				c0-2.02,0.23-4.03,0.71-6.03c0.48-2.01,1.23-3.82,2.28-5.43c1.05-1.61,2.39-2.93,4.03-3.94c1.64-1.01,3.62-1.52,5.95-1.52
				c1.53,0,2.98,0.26,4.35,0.79c1.39,0.52,2.63,1.25,3.73,2.19c1.1,0.94,2.01,2.05,2.74,3.33c0.72,1.28,1.19,2.67,1.39,4.19
				l0.51-0.1v-7.58l-0.51-0.05l-0.41,0.65l-0.3,0.21c-0.41-0.04-0.82-0.34-1.24-0.92s-1.04-1.19-1.83-1.84
				c-0.79-0.66-1.87-1.26-3.22-1.79c-1.35-0.55-3.14-0.82-5.36-0.82c-2.63,0-5.09,0.48-7.37,1.42c-2.28,0.94-4.27,2.24-5.98,3.86
				c-1.71,1.64-3.04,3.57-4.03,5.84c-0.99,2.25-1.47,4.7-1.47,7.32c0,2.53,0.44,4.93,1.32,7.21c0.87,2.26,2.1,4.26,3.7,5.98
				c1.58,1.72,3.47,3.08,5.65,4.09c2.17,1.01,4.56,1.52,7.17,1.52c3.1,0,5.92-0.77,8.46-2.29
				C1722.34,589.18,1724.41,587.1,1726.03,584.48z"/>
			<path class="st0" d="M1373.83,573.86v-0.7h-9.77v15.25c-1.09,0.89-2.28,1.54-3.57,2.01c-1.3,0.45-2.65,0.67-4.03,0.67
				c-2.43,0-4.56-0.48-6.39-1.43c-1.83-0.95-3.34-2.24-4.56-3.84c-1.22-1.6-2.13-3.42-2.73-5.49c-0.61-2.05-0.92-4.18-0.92-6.36
				c0-2.09,0.31-4.12,0.94-6.09c0.61-1.97,1.53-3.73,2.73-5.26c1.2-1.53,2.67-2.76,4.43-3.69c1.75-0.93,3.78-1.39,6.07-1.39
				c5.51,0,10.48,3.29,12.33,8.5h0.82c-2.17-7.3-6.37-10.43-13.75-10.43c-2.81,0-5.4,0.5-7.81,1.51c-2.4,1.01-4.48,2.42-6.24,4.21
				c-1.75,1.77-3.14,3.88-4.15,6.28c-1.01,2.42-1.51,5-1.51,7.77c0,2.76,0.53,5.23,1.61,7.4c1.09,2.17,2.54,4.02,4.37,5.53
				c1.81,1.52,3.92,2.68,6.28,3.48c2.36,0.82,4.84,1.22,7.45,1.22c2.46,0,4.89-0.3,7.29-0.9c2.4-0.62,4.67-1.54,6.79-2.79v-11.41
				c0-1.42,0.38-2.47,1.12-3.14c0.74-0.67,1.8-0.97,3.19-0.9V573.86z"/>
			<path class="st4" d="M1373.83,573.86v-0.7h-9.77v15.25c-1.09,0.89-2.28,1.54-3.57,2.01c-1.3,0.45-2.65,0.67-4.03,0.67
				c-2.43,0-4.56-0.48-6.39-1.43c-1.83-0.95-3.34-2.24-4.56-3.84c-1.22-1.6-2.13-3.42-2.73-5.49c-0.61-2.05-0.92-4.18-0.92-6.36
				c0-2.09,0.31-4.12,0.94-6.09c0.61-1.97,1.53-3.73,2.73-5.26c1.2-1.53,2.67-2.76,4.43-3.69c1.75-0.93,3.78-1.39,6.07-1.39
				c5.51,0,10.48,3.29,12.33,8.5h0.82c-2.17-7.3-6.37-10.43-13.75-10.43c-2.81,0-5.4,0.5-7.81,1.51c-2.4,1.01-4.48,2.42-6.24,4.21
				c-1.75,1.77-3.14,3.88-4.15,6.28c-1.01,2.42-1.51,5-1.51,7.77c0,2.76,0.53,5.23,1.61,7.4c1.09,2.17,2.54,4.02,4.37,5.53
				c1.81,1.52,3.92,2.68,6.28,3.48c2.36,0.82,4.84,1.22,7.45,1.22c2.46,0,4.89-0.3,7.29-0.9c2.4-0.62,4.67-1.54,6.79-2.79v-11.41
				c0-1.42,0.38-2.47,1.12-3.14c0.74-0.67,1.8-0.97,3.19-0.9V573.86z"/>
			<path class="st0" d="M966.66,591.8v0.77h15.71v-0.77c-0.82,0-1.53-0.02-2.16-0.09c-0.63-0.07-1.16-0.23-1.6-0.51
				c-0.44-0.27-0.77-0.67-0.99-1.21c-0.22-0.53-0.33-1.26-0.33-2.17v-31.63h-5.48v31.63c0,0.91-0.12,1.64-0.35,2.17
				c-0.23,0.55-0.59,0.94-1.04,1.21c-0.46,0.28-1.01,0.44-1.65,0.51C968.15,591.77,967.44,591.8,966.66,591.8z"/>
			<path class="st4" d="M966.66,591.8v0.77h15.71v-0.77c-0.82,0-1.53-0.02-2.16-0.09c-0.63-0.07-1.16-0.23-1.6-0.51
				c-0.44-0.27-0.77-0.67-0.99-1.21c-0.22-0.53-0.33-1.26-0.33-2.17v-31.63h-5.48v31.63c0,0.91-0.12,1.64-0.35,2.17
				c-0.23,0.55-0.59,0.94-1.04,1.21c-0.46,0.28-1.01,0.44-1.65,0.51C968.15,591.77,967.44,591.8,966.66,591.8z"/>
			<path class="st0" d="M843.68,591.8v0.77h15.71v-0.77c-0.82,0-1.53-0.02-2.16-0.09c-0.63-0.07-1.16-0.23-1.6-0.51
				c-0.44-0.27-0.77-0.67-0.98-1.21c-0.23-0.53-0.34-1.26-0.34-2.17v-31.63h-5.46v31.63c0,0.91-0.12,1.64-0.36,2.17
				c-0.24,0.55-0.59,0.94-1.04,1.21c-0.46,0.28-1.01,0.44-1.65,0.51C845.17,591.77,844.46,591.8,843.68,591.8z"/>
			<path class="st4" d="M843.68,591.8v0.77h15.71v-0.77c-0.82,0-1.53-0.02-2.16-0.09c-0.63-0.07-1.16-0.23-1.6-0.51
				c-0.44-0.27-0.77-0.67-0.98-1.21c-0.23-0.53-0.34-1.26-0.34-2.17v-31.63h-5.46v31.63c0,0.91-0.12,1.64-0.36,2.17
				c-0.24,0.55-0.59,0.94-1.04,1.21c-0.46,0.28-1.01,0.44-1.65,0.51C845.17,591.77,844.46,591.8,843.68,591.8z"/>
			<path class="st0" d="M656.13,592.66v0.77h15.7v-0.77c-0.81,0-1.53-0.02-2.16-0.09c-0.61-0.07-1.15-0.23-1.58-0.5
				c-0.45-0.28-0.78-0.67-1-1.22c-0.22-0.53-0.33-1.25-0.33-2.17v-31.63h-5.47v31.63c0,0.92-0.11,1.64-0.36,2.17
				c-0.23,0.55-0.57,0.94-1.03,1.22c-0.45,0.27-1,0.44-1.64,0.5C657.62,592.63,656.91,592.66,656.13,592.66z"/>
			<path class="st4" d="M656.13,592.66v0.77h15.7v-0.77c-0.81,0-1.53-0.02-2.16-0.09c-0.61-0.07-1.15-0.23-1.58-0.5
				c-0.45-0.28-0.78-0.67-1-1.22c-0.22-0.53-0.33-1.25-0.33-2.17v-31.63h-5.47v31.63c0,0.92-0.11,1.64-0.36,2.17
				c-0.23,0.55-0.57,0.94-1.03,1.22c-0.45,0.27-1,0.44-1.64,0.5C657.62,592.63,656.91,592.66,656.13,592.66z"/>
			<path class="st0" d="M679.05,555.82h-30.2l-0.6,8.32h0.75c-0.02-1.17,0.14-2.17,0.51-2.97c0.38-0.81,0.89-1.46,1.56-1.94
				c0.66-0.49,1.43-0.85,2.32-1.07c0.9-0.22,1.88-0.33,2.96-0.33h4.97v34.36h5.47v-34.36h12.22L679.05,555.82z"/>
			<path class="st4" d="M679.05,555.82h-30.2l-0.6,8.32h0.75c-0.02-1.17,0.14-2.17,0.51-2.97c0.38-0.81,0.89-1.46,1.56-1.94
				c0.66-0.49,1.43-0.85,2.32-1.07c0.9-0.22,1.88-0.33,2.96-0.33h4.97v34.36h5.47v-34.36h12.22L679.05,555.82z"/>
			<path class="st0" d="M568.91,592.56v0.71l7.5,0.04l-0.06-26.72l22.1,26.67l3.49-0.05v-37.13h-2.03v30.6l-25.18-30.56h-0.45v32.39
				c0,0.87-0.14,1.58-0.41,2.11c-0.26,0.55-0.64,0.97-1.13,1.27c-0.49,0.3-1.05,0.49-1.69,0.57
				C570.39,592.56,569.68,592.59,568.91,592.56z"/>
			<path class="st4" d="M568.91,592.56v0.71l7.5,0.04l-0.06-26.72l22.1,26.67l3.49-0.05v-37.13h-2.03v30.6l-25.18-30.56h-0.45v32.39
				c0,0.87-0.14,1.58-0.41,2.11c-0.26,0.55-0.64,0.97-1.13,1.27c-0.49,0.3-1.05,0.49-1.69,0.57
				C570.39,592.56,569.68,592.59,568.91,592.56z"/>
			<path class="st0" d="M1617.84,592.7v0.71l7.5,0.06l-0.04-26.73l22.08,26.67l3.49-0.05v-37.13h-2.02v30.61l-25.18-30.56h-0.46
				v32.38c0,0.87-0.13,1.58-0.4,2.13c-0.27,0.53-0.65,0.96-1.15,1.26c-0.49,0.31-1.05,0.5-1.69,0.59
				C1619.33,592.71,1618.62,592.74,1617.84,592.7z"/>
			<path class="st4" d="M1617.84,592.7v0.71l7.5,0.06l-0.04-26.73l22.08,26.67l3.49-0.05v-37.13h-2.02v30.61l-25.18-30.56h-0.46
				v32.38c0,0.87-0.13,1.58-0.4,2.13c-0.27,0.53-0.65,0.96-1.15,1.26c-0.49,0.31-1.05,0.5-1.69,0.59
				C1619.33,592.71,1618.62,592.74,1617.84,592.7z"/>
			<path class="st0" d="M460.15,584.48l-0.39-0.36c-1.53,2.12-3.34,3.78-5.47,4.97c-2.13,1.2-4.5,1.8-7.14,1.8
				c-2.38,0-4.41-0.46-6.12-1.39c-1.71-0.93-3.1-2.16-4.18-3.69c-1.08-1.53-1.88-3.29-2.4-5.25c-0.53-1.98-0.79-4.02-0.79-6.14
				c0-2.02,0.25-4.03,0.71-6.03c0.48-2.01,1.23-3.82,2.28-5.43c1.05-1.61,2.39-2.93,4.03-3.94c1.64-1.01,3.63-1.52,5.95-1.52
				c1.53,0,2.98,0.26,4.37,0.79c1.38,0.52,2.62,1.25,3.71,2.19c1.1,0.94,2.02,2.05,2.74,3.33c0.72,1.28,1.19,2.67,1.39,4.19
				l0.51-0.1v-7.58l-0.51-0.05l-0.41,0.65l-0.3,0.21c-0.41-0.04-0.82-0.34-1.24-0.92s-1.02-1.19-1.83-1.84
				c-0.79-0.66-1.86-1.26-3.21-1.79c-1.35-0.55-3.14-0.82-5.38-0.82c-2.63,0-5.09,0.48-7.37,1.42c-2.28,0.94-4.27,2.24-5.98,3.86
				c-1.71,1.64-3.04,3.57-4.03,5.84c-0.99,2.25-1.46,4.7-1.46,7.32c0,2.53,0.44,4.93,1.31,7.21c0.87,2.26,2.11,4.26,3.7,5.98
				c1.58,1.72,3.47,3.08,5.65,4.09c2.17,1.01,4.56,1.52,7.17,1.52c3.11,0,5.93-0.77,8.46-2.29
				C456.46,589.18,458.54,587.1,460.15,584.48z"/>
			<path class="st4" d="M460.15,584.48l-0.39-0.36c-1.53,2.12-3.34,3.78-5.47,4.97c-2.13,1.2-4.5,1.8-7.14,1.8
				c-2.38,0-4.41-0.46-6.12-1.39c-1.71-0.93-3.1-2.16-4.18-3.69c-1.08-1.53-1.88-3.29-2.4-5.25c-0.53-1.98-0.79-4.02-0.79-6.14
				c0-2.02,0.25-4.03,0.71-6.03c0.48-2.01,1.23-3.82,2.28-5.43c1.05-1.61,2.39-2.93,4.03-3.94c1.64-1.01,3.63-1.52,5.95-1.52
				c1.53,0,2.98,0.26,4.37,0.79c1.38,0.52,2.62,1.25,3.71,2.19c1.1,0.94,2.02,2.05,2.74,3.33c0.72,1.28,1.19,2.67,1.39,4.19
				l0.51-0.1v-7.58l-0.51-0.05l-0.41,0.65l-0.3,0.21c-0.41-0.04-0.82-0.34-1.24-0.92s-1.02-1.19-1.83-1.84
				c-0.79-0.66-1.86-1.26-3.21-1.79c-1.35-0.55-3.14-0.82-5.38-0.82c-2.63,0-5.09,0.48-7.37,1.42c-2.28,0.94-4.27,2.24-5.98,3.86
				c-1.71,1.64-3.04,3.57-4.03,5.84c-0.99,2.25-1.46,4.7-1.46,7.32c0,2.53,0.44,4.93,1.31,7.21c0.87,2.26,2.11,4.26,3.7,5.98
				c1.58,1.72,3.47,3.08,5.65,4.09c2.17,1.01,4.56,1.52,7.17,1.52c3.11,0,5.93-0.77,8.46-2.29
				C456.46,589.18,458.54,587.1,460.15,584.48z"/>
			<path class="st0" d="M528.39,574.68h-0.04c0,1.75-0.18,3.6-0.52,5.6c-0.34,1.99-0.94,3.82-1.8,5.5
				c-0.86,1.68-2.02,3.07-3.48,4.19c-1.46,1.12-3.29,1.67-5.5,1.67c-2.16,0-3.96-0.55-5.41-1.67c-1.45-1.12-2.59-2.53-3.46-4.22
				c-0.86-1.69-1.47-3.54-1.83-5.53c-0.37-1.98-0.55-3.84-0.55-5.54c0-1.76,0.18-3.62,0.55-5.61c0.36-1.99,0.97-3.81,1.83-5.47
				c0.86-1.66,2.02-3.06,3.48-4.16c1.46-1.12,3.29-1.68,5.49-1.68c2.17,0,3.97,0.56,5.42,1.68c1.43,1.1,2.59,2.51,3.45,4.19
				c0.86,1.68,1.46,3.51,1.83,5.5C528.22,571.1,528.39,572.96,528.39,574.68z M534.63,574.89c0-2.54-0.39-4.96-1.2-7.25
				c-0.82-2.31-1.96-4.31-3.45-6.05c-1.5-1.73-3.32-3.11-5.48-4.14c-2.14-1.04-4.56-1.54-7.23-1.54c-2.72,0-5.16,0.49-7.33,1.46
				c-2.17,0.98-4.01,2.32-5.54,4.01c-1.53,1.69-2.7,3.69-3.54,5.97c-0.82,2.28-1.23,4.72-1.23,7.33c0,2.5,0.4,4.87,1.2,7.14
				c0.82,2.26,1.96,4.26,3.47,5.99c1.49,1.73,3.29,3.11,5.41,4.13c2.12,1.02,4.49,1.54,7.14,1.54c2.65,0,5.06-0.49,7.25-1.46
				c2.18-0.98,4.05-2.31,5.63-3.99c1.55-1.68,2.77-3.66,3.63-5.91C534.21,579.87,534.63,577.45,534.63,574.89z"/>
			<path class="st4" d="M528.39,574.68h-0.04c0,1.75-0.18,3.6-0.52,5.6c-0.34,1.99-0.94,3.82-1.8,5.5
				c-0.86,1.68-2.02,3.07-3.48,4.19c-1.46,1.12-3.29,1.67-5.5,1.67c-2.16,0-3.96-0.55-5.41-1.67c-1.45-1.12-2.59-2.53-3.46-4.22
				c-0.86-1.69-1.47-3.54-1.83-5.53c-0.37-1.98-0.55-3.84-0.55-5.54c0-1.76,0.18-3.62,0.55-5.61c0.36-1.99,0.97-3.81,1.83-5.47
				c0.86-1.66,2.02-3.06,3.48-4.16c1.46-1.12,3.29-1.68,5.49-1.68c2.17,0,3.97,0.56,5.42,1.68c1.43,1.1,2.59,2.51,3.45,4.19
				c0.86,1.68,1.46,3.51,1.83,5.5C528.22,571.1,528.39,572.96,528.39,574.68z M534.63,574.89c0-2.54-0.39-4.96-1.2-7.25
				c-0.82-2.31-1.96-4.31-3.45-6.05c-1.5-1.73-3.32-3.11-5.48-4.14c-2.14-1.04-4.56-1.54-7.23-1.54c-2.72,0-5.16,0.49-7.33,1.46
				c-2.17,0.98-4.01,2.32-5.54,4.01c-1.53,1.69-2.7,3.69-3.54,5.97c-0.82,2.28-1.23,4.72-1.23,7.33c0,2.5,0.4,4.87,1.2,7.14
				c0.82,2.26,1.96,4.26,3.47,5.99c1.49,1.73,3.29,3.11,5.41,4.13c2.12,1.02,4.49,1.54,7.14,1.54c2.65,0,5.06-0.49,7.25-1.46
				c2.18-0.98,4.05-2.31,5.63-3.99c1.55-1.68,2.77-3.66,3.63-5.91C534.21,579.87,534.63,577.45,534.63,574.89z"/>
			<path class="st0" d="M730.29,579.34h-12.12l6.17-14.26L730.29,579.34z M742.17,593.49l-15.86-37.72l-0.37,0.05l-14.35,32.8
				c-0.24,0.52-0.48,1.02-0.72,1.53c-0.24,0.5-0.52,0.94-0.83,1.32c-0.31,0.37-0.68,0.67-1.13,0.9c-0.45,0.22-1.01,0.33-1.67,0.33
				v0.78h10.32v-0.72c-0.36,0-0.75,0-1.2,0c-0.45,0-0.87-0.06-1.3-0.18c-0.41-0.12-0.77-0.31-1.05-0.6
				c-0.3-0.27-0.45-0.65-0.45-1.13c0-0.24,0.09-0.64,0.26-1.19c0.18-0.55,0.39-1.17,0.68-1.86c0.27-0.7,0.56-1.41,0.87-2.15
				c0.31-0.73,0.6-1.42,0.88-2.04c0.28-0.61,0.52-1.15,0.72-1.6c0.21-0.45,0.33-0.71,0.36-0.78h13.69c0.86,2.08,1.71,4.11,2.54,6.13
				c0.82,2.01,1.64,4.05,2.43,6.12H742.17z"/>
			<path class="st4" d="M730.29,579.34h-12.12l6.17-14.26L730.29,579.34z M742.17,593.49l-15.86-37.72l-0.37,0.05l-14.35,32.8
				c-0.24,0.52-0.48,1.02-0.72,1.53c-0.24,0.5-0.52,0.94-0.83,1.32c-0.31,0.37-0.68,0.67-1.13,0.9c-0.45,0.22-1.01,0.33-1.67,0.33
				v0.78h10.32v-0.72c-0.36,0-0.75,0-1.2,0c-0.45,0-0.87-0.06-1.3-0.18c-0.41-0.12-0.77-0.31-1.05-0.6
				c-0.3-0.27-0.45-0.65-0.45-1.13c0-0.24,0.09-0.64,0.26-1.19c0.18-0.55,0.39-1.17,0.68-1.86c0.27-0.7,0.56-1.41,0.87-2.15
				c0.31-0.73,0.6-1.42,0.88-2.04c0.28-0.61,0.52-1.15,0.72-1.6c0.21-0.45,0.33-0.71,0.36-0.78h13.69c0.86,2.08,1.71,4.11,2.54,6.13
				c0.82,2.01,1.64,4.05,2.43,6.12H742.17z"/>
			<path class="st0" d="M1116.1,579.34h-12.12l6.17-14.26L1116.1,579.34z M1127.97,593.49l-15.85-37.72l-0.37,0.05l-14.34,32.8
				c-0.25,0.52-0.49,1.02-0.72,1.53c-0.25,0.5-0.52,0.94-0.84,1.32c-0.31,0.37-0.7,0.67-1.15,0.9c-0.44,0.22-1,0.33-1.65,0.33v0.78
				h10.31v-0.72c-0.34,0-0.74,0-1.19,0c-0.45,0-0.87-0.06-1.3-0.18c-0.41-0.12-0.77-0.31-1.07-0.6c-0.29-0.27-0.44-0.65-0.44-1.13
				c0-0.24,0.08-0.64,0.26-1.19c0.18-0.55,0.4-1.17,0.67-1.86c0.29-0.7,0.57-1.41,0.89-2.15c0.31-0.73,0.6-1.42,0.87-2.04
				c0.29-0.61,0.52-1.15,0.74-1.6c0.2-0.45,0.33-0.71,0.35-0.78h13.68c0.87,2.08,1.72,4.11,2.54,6.13c0.83,2.01,1.65,4.05,2.44,6.12
				H1127.97z"/>
			<path class="st4" d="M1116.1,579.34h-12.12l6.17-14.26L1116.1,579.34z M1127.97,593.49l-15.85-37.72l-0.37,0.05l-14.34,32.8
				c-0.25,0.52-0.49,1.02-0.72,1.53c-0.25,0.5-0.52,0.94-0.84,1.32c-0.31,0.37-0.7,0.67-1.15,0.9c-0.44,0.22-1,0.33-1.65,0.33v0.78
				h10.31v-0.72c-0.34,0-0.74,0-1.19,0c-0.45,0-0.87-0.06-1.3-0.18c-0.41-0.12-0.77-0.31-1.07-0.6c-0.29-0.27-0.44-0.65-0.44-1.13
				c0-0.24,0.08-0.64,0.26-1.19c0.18-0.55,0.4-1.17,0.67-1.86c0.29-0.7,0.57-1.41,0.89-2.15c0.31-0.73,0.6-1.42,0.87-2.04
				c0.29-0.61,0.52-1.15,0.74-1.6c0.2-0.45,0.33-0.71,0.35-0.78h13.68c0.87,2.08,1.72,4.11,2.54,6.13c0.83,2.01,1.65,4.05,2.44,6.12
				H1127.97z"/>
			<path class="st0" d="M1837.23,579.34h-12.12l6.17-14.26L1837.23,579.34z M1849.11,593.49l-15.86-37.72l-0.36,0.05l-14.36,32.8
				c-0.24,0.52-0.48,1.02-0.72,1.53c-0.24,0.5-0.52,0.94-0.83,1.32c-0.31,0.37-0.68,0.67-1.14,0.9c-0.45,0.22-1.01,0.33-1.66,0.33
				v0.78h10.32v-0.72c-0.35,0-0.75,0-1.2,0c-0.45,0-0.87-0.06-1.3-0.18c-0.41-0.12-0.77-0.31-1.05-0.6
				c-0.3-0.27-0.45-0.65-0.45-1.13c0-0.24,0.09-0.64,0.26-1.19c0.18-0.55,0.39-1.17,0.68-1.86c0.27-0.7,0.56-1.41,0.87-2.15
				c0.31-0.73,0.61-1.42,0.89-2.04c0.27-0.61,0.52-1.15,0.72-1.6c0.21-0.45,0.33-0.71,0.36-0.78h13.69
				c0.86,2.08,1.71,4.11,2.54,6.13c0.82,2.01,1.64,4.05,2.43,6.12H1849.11z"/>
			<path class="st4" d="M1837.23,579.34h-12.12l6.17-14.26L1837.23,579.34z M1849.11,593.49l-15.86-37.72l-0.36,0.05l-14.36,32.8
				c-0.24,0.52-0.48,1.02-0.72,1.53c-0.24,0.5-0.52,0.94-0.83,1.32c-0.31,0.37-0.68,0.67-1.14,0.9c-0.45,0.22-1.01,0.33-1.66,0.33
				v0.78h10.32v-0.72c-0.35,0-0.75,0-1.2,0c-0.45,0-0.87-0.06-1.3-0.18c-0.41-0.12-0.77-0.31-1.05-0.6
				c-0.3-0.27-0.45-0.65-0.45-1.13c0-0.24,0.09-0.64,0.26-1.19c0.18-0.55,0.39-1.17,0.68-1.86c0.27-0.7,0.56-1.41,0.87-2.15
				c0.31-0.73,0.61-1.42,0.89-2.04c0.27-0.61,0.52-1.15,0.72-1.6c0.21-0.45,0.33-0.71,0.36-0.78h13.69
				c0.86,2.08,1.71,4.11,2.54,6.13c0.82,2.01,1.64,4.05,2.43,6.12H1849.11z"/>
			<path class="st0" d="M790.44,558.4c-0.44,0.09-0.8,0.35-1.15,0.61c-0.36,0.26-0.61,0.59-0.78,0.97v14.06
				c0.48,0.11,0.97,0.19,1.45,0.26c0.49,0.07,0.99,0.09,1.46,0.11C805.56,574.54,800.52,555.94,790.44,558.4z M792.41,576.37
				c-0.67,0.03-1.3,0.04-1.91,0.14c-0.6,0.08-1.23,0.19-1.9,0.33v14.54c0.49,0.07,0.95,0.14,1.4,0.21c0.45,0.07,0.93,0.07,1.4,0.11
				c4,0.29,8.89-2.41,9.6-7.41C801.57,580.35,798.22,576.17,792.41,576.37z M799.85,575.33c10.24,2.16,9.99,11.15,4.37,15.69
				c-2.2,1.78-5.12,2.22-8.72,2.28c-0.98,0-1.98,0.04-2.99,0.04h-14.53v-0.72c0.38,0,0.86-0.03,1.41-0.08
				c0.56-0.04,1.09-0.15,1.62-0.3c0.52-0.16,0.95-0.39,1.32-0.71c0.35-0.3,0.55-0.75,0.55-1.35v-34.2h11.19c1.67,0,3.34,0.08,5,0.49
				C808.85,558.96,809.83,572.66,799.85,575.33z"/>
			<path class="st4" d="M790.44,558.4c-0.44,0.09-0.8,0.35-1.15,0.61c-0.36,0.26-0.61,0.59-0.78,0.97v14.06
				c0.48,0.11,0.97,0.19,1.45,0.26c0.49,0.07,0.99,0.09,1.46,0.11C805.56,574.54,800.52,555.94,790.44,558.4z M792.41,576.37
				c-0.67,0.03-1.3,0.04-1.91,0.14c-0.6,0.08-1.23,0.19-1.9,0.33v14.54c0.49,0.07,0.95,0.14,1.4,0.21c0.45,0.07,0.93,0.07,1.4,0.11
				c4,0.29,8.89-2.41,9.6-7.41C801.57,580.35,798.22,576.17,792.41,576.37z M799.85,575.33c10.24,2.16,9.99,11.15,4.37,15.69
				c-2.2,1.78-5.12,2.22-8.72,2.28c-0.98,0-1.98,0.04-2.99,0.04h-14.53v-0.72c0.38,0,0.86-0.03,1.41-0.08
				c0.56-0.04,1.09-0.15,1.62-0.3c0.52-0.16,0.95-0.39,1.32-0.71c0.35-0.3,0.55-0.75,0.55-1.35v-34.2h11.19c1.67,0,3.34,0.08,5,0.49
				C808.85,558.96,809.83,572.66,799.85,575.33z"/>
			<path class="st0" d="M1054.51,575.01h-0.05c0-2.39-0.33-4.6-0.99-6.66c-0.65-2.04-1.64-3.83-2.93-5.35
				c-1.3-1.51-2.91-2.7-4.82-3.57c-1.93-0.86-4.15-1.28-6.67-1.28c-0.31,0-0.79,0-1.45,0c-0.63,0-1.27,0.04-1.92,0.15
				c-0.66,0.11-1.23,0.27-1.72,0.49c-0.48,0.22-0.72,0.57-0.72,1.07c0,5.13,0.03,10.26,0.06,15.4c0.04,5.12,0.06,10.25,0.06,15.4
				c1.8,0.68,3.67,1.04,5.59,1.04c2.43,0,4.62-0.44,6.55-1.3c1.94-0.86,3.56-2.05,4.9-3.55c1.33-1.5,2.35-3.26,3.06-5.29
				C1054.16,579.49,1054.51,577.32,1054.51,575.01z M1060.9,575.57c0,3.11-0.57,5.79-1.71,8.03c-1.15,2.24-2.7,4.1-4.65,5.57
				c-1.95,1.46-4.2,2.55-6.77,3.26c-2.57,0.71-5.26,1.05-8.1,1.05h-17.04v-0.77c0.81,0,1.52-0.04,2.16-0.11
				c0.64-0.07,1.17-0.23,1.61-0.49s0.77-0.67,0.99-1.21c0.23-0.56,0.34-1.31,0.34-2.28v-32.4h11.11c3.11,0,6.02,0.38,8.72,1.15
				c2.69,0.75,5.04,1.93,7,3.52c1.98,1.58,3.52,3.59,4.64,6.02C1060.34,569.34,1060.9,572.22,1060.9,575.57z"/>
			<path class="st4" d="M1054.51,575.01h-0.05c0-2.39-0.33-4.6-0.99-6.66c-0.65-2.04-1.64-3.83-2.93-5.35
				c-1.3-1.51-2.91-2.7-4.82-3.57c-1.93-0.86-4.15-1.28-6.67-1.28c-0.31,0-0.79,0-1.45,0c-0.63,0-1.27,0.04-1.92,0.15
				c-0.66,0.11-1.23,0.27-1.72,0.49c-0.48,0.22-0.72,0.57-0.72,1.07c0,5.13,0.03,10.26,0.06,15.4c0.04,5.12,0.06,10.25,0.06,15.4
				c1.8,0.68,3.67,1.04,5.59,1.04c2.43,0,4.62-0.44,6.55-1.3c1.94-0.86,3.56-2.05,4.9-3.55c1.33-1.5,2.35-3.26,3.06-5.29
				C1054.16,579.49,1054.51,577.32,1054.51,575.01z M1060.9,575.57c0,3.11-0.57,5.79-1.71,8.03c-1.15,2.24-2.7,4.1-4.65,5.57
				c-1.95,1.46-4.2,2.55-6.77,3.26c-2.57,0.71-5.26,1.05-8.1,1.05h-17.04v-0.77c0.81,0,1.52-0.04,2.16-0.11
				c0.64-0.07,1.17-0.23,1.61-0.49s0.77-0.67,0.99-1.21c0.23-0.56,0.34-1.31,0.34-2.28v-32.4h11.11c3.11,0,6.02,0.38,8.72,1.15
				c2.69,0.75,5.04,1.93,7,3.52c1.98,1.58,3.52,3.59,4.64,6.02C1060.34,569.34,1060.9,572.22,1060.9,575.57z"/>
			<path class="st0" d="M1195.25,575.01h-0.06c0-2.39-0.33-4.6-0.98-6.66c-0.66-2.04-1.64-3.83-2.94-5.35
				c-1.3-1.51-2.91-2.7-4.83-3.57c-1.91-0.86-4.13-1.28-6.66-1.28c-0.31,0-0.81,0-1.46,0c-0.61,0-1.25,0.04-1.93,0.15
				c-0.65,0.11-1.23,0.27-1.71,0.49c-0.49,0.22-0.72,0.57-0.72,1.07c0,5.13,0.01,10.26,0.04,15.4c0.04,5.12,0.05,10.25,0.05,15.4
				c1.8,0.68,3.67,1.04,5.61,1.04c2.41,0,4.6-0.44,6.54-1.3c1.94-0.86,3.57-2.05,4.91-3.55c1.32-1.5,2.35-3.26,3.06-5.29
				C1194.89,579.49,1195.25,577.32,1195.25,575.01z M1201.64,575.57c0,3.11-0.57,5.79-1.72,8.03c-1.15,2.24-2.69,4.1-4.64,5.57
				c-1.97,1.46-4.22,2.55-6.79,3.26c-2.55,0.71-5.26,1.05-8.09,1.05h-17.02v-0.77c0.79,0,1.51-0.04,2.16-0.11
				c0.64-0.07,1.17-0.23,1.61-0.49c0.42-0.26,0.75-0.67,0.98-1.21c0.22-0.56,0.34-1.31,0.34-2.28v-32.4h11.09
				c3.13,0,6.03,0.38,8.73,1.15c2.7,0.75,5.04,1.93,7.01,3.52c1.97,1.58,3.52,3.59,4.64,6.02
				C1201.06,569.34,1201.64,572.22,1201.64,575.57z"/>
			<path class="st4" d="M1195.25,575.01h-0.06c0-2.39-0.33-4.6-0.98-6.66c-0.66-2.04-1.64-3.83-2.94-5.35
				c-1.3-1.51-2.91-2.7-4.83-3.57c-1.91-0.86-4.13-1.28-6.66-1.28c-0.31,0-0.81,0-1.46,0c-0.61,0-1.25,0.04-1.93,0.15
				c-0.65,0.11-1.23,0.27-1.71,0.49c-0.49,0.22-0.72,0.57-0.72,1.07c0,5.13,0.01,10.26,0.04,15.4c0.04,5.12,0.05,10.25,0.05,15.4
				c1.8,0.68,3.67,1.04,5.61,1.04c2.41,0,4.6-0.44,6.54-1.3c1.94-0.86,3.57-2.05,4.91-3.55c1.32-1.5,2.35-3.26,3.06-5.29
				C1194.89,579.49,1195.25,577.32,1195.25,575.01z M1201.64,575.57c0,3.11-0.57,5.79-1.72,8.03c-1.15,2.24-2.69,4.1-4.64,5.57
				c-1.97,1.46-4.22,2.55-6.79,3.26c-2.55,0.71-5.26,1.05-8.09,1.05h-17.02v-0.77c0.79,0,1.51-0.04,2.16-0.11
				c0.64-0.07,1.17-0.23,1.61-0.49c0.42-0.26,0.75-0.67,0.98-1.21c0.22-0.56,0.34-1.31,0.34-2.28v-32.4h11.09
				c3.13,0,6.03,0.38,8.73,1.15c2.7,0.75,5.04,1.93,7.01,3.52c1.97,1.58,3.52,3.59,4.64,6.02
				C1201.06,569.34,1201.64,572.22,1201.64,575.57z"/>
			<path class="st0" d="M1502.14,565.86c0,1.52-0.31,2.8-0.95,3.84c-0.64,1.04-1.47,1.86-2.5,2.48c-1.02,0.61-2.17,1.07-3.46,1.32
				c-1.28,0.26-2.58,0.38-3.89,0.38c-0.18,0-0.37,0-0.57,0c-0.18,0-0.34-0.01-0.52-0.05v-15.33c0.59-0.27,1.21-0.49,1.87-0.64
				c0.65-0.16,1.31-0.23,1.96-0.23c1.26,0,2.38,0.21,3.36,0.61s1.83,0.98,2.54,1.71s1.25,1.6,1.61,2.59
				C1501.97,563.54,1502.14,564.65,1502.14,565.86z M1516.01,593.26v-0.72c-1.56,0-2.83-0.38-3.81-1.16c-1-0.78-1.94-1.76-2.84-2.94
				l-10.07-13.31c1.24-0.31,2.43-0.72,3.56-1.24c1.12-0.52,2.1-1.16,2.94-1.94c0.83-0.78,1.49-1.71,1.96-2.77
				c0.49-1.08,0.74-2.32,0.74-3.73c0-1.84-0.35-3.36-1.05-4.58c-0.68-1.23-1.61-2.21-2.77-2.94c-1.16-0.72-2.48-1.23-3.97-1.53
				c-1.49-0.29-3.03-0.44-4.63-0.44h-11.47c-0.19,0,0.03,31.38-0.08,33.43c-0.04,0.72-0.01,1.19-0.3,1.64
				c-0.27,0.45-0.64,0.79-1.1,1.01c-0.48,0.23-1,0.37-1.57,0.44c-0.56,0.07-1.15,0.09-1.73,0.05v0.72h10.44v-17.61h3.32l11.27,14.92
				c0.45,0.61,0.87,1.15,1.27,1.58c0.41,0.42,0.83,0.78,1.31,1.05c0.46,0.29,0.98,0.48,1.56,0.6c0.57,0.12,1.27,0.17,2.1,0.17
				C1512.75,593.98,1514.39,593.75,1516.01,593.26z"/>
			<path class="st4" d="M1502.14,565.86c0,1.52-0.31,2.8-0.95,3.84c-0.64,1.04-1.47,1.86-2.5,2.48c-1.02,0.61-2.17,1.07-3.46,1.32
				c-1.28,0.26-2.58,0.38-3.89,0.38c-0.18,0-0.37,0-0.57,0c-0.18,0-0.34-0.01-0.52-0.05v-15.33c0.59-0.27,1.21-0.49,1.87-0.64
				c0.65-0.16,1.31-0.23,1.96-0.23c1.26,0,2.38,0.21,3.36,0.61s1.83,0.98,2.54,1.71s1.25,1.6,1.61,2.59
				C1501.97,563.54,1502.14,564.65,1502.14,565.86z M1516.01,593.26v-0.72c-1.56,0-2.83-0.38-3.81-1.16c-1-0.78-1.94-1.76-2.84-2.94
				l-10.07-13.31c1.24-0.31,2.43-0.72,3.56-1.24c1.12-0.52,2.1-1.16,2.94-1.94c0.83-0.78,1.49-1.71,1.96-2.77
				c0.49-1.08,0.74-2.32,0.74-3.73c0-1.84-0.35-3.36-1.05-4.58c-0.68-1.23-1.61-2.21-2.77-2.94c-1.16-0.72-2.48-1.23-3.97-1.53
				c-1.49-0.29-3.03-0.44-4.63-0.44h-11.47c-0.19,0,0.03,31.38-0.08,33.43c-0.04,0.72-0.01,1.19-0.3,1.64
				c-0.27,0.45-0.64,0.79-1.1,1.01c-0.48,0.23-1,0.37-1.57,0.44c-0.56,0.07-1.15,0.09-1.73,0.05v0.72h10.44v-17.61h3.32l11.27,14.92
				c0.45,0.61,0.87,1.15,1.27,1.58c0.41,0.42,0.83,0.78,1.31,1.05c0.46,0.29,0.98,0.48,1.56,0.6c0.57,0.12,1.27,0.17,2.1,0.17
				C1512.75,593.98,1514.39,593.75,1516.01,593.26z"/>
			<path class="st0" d="M1265.82,564.84l-0.63-0.01c0.14-4.04-1.6-6.76-6.96-6.76c-2.77,0-5.56-0.04-8.33-0.04
				c-0.39,0-0.72,0.16-0.98,0.51c-0.24,0.33-0.37,0.68-0.37,1.05v12.58h8.35c4,0,5.3-1.9,5.3-5.35h0.67v12.53h-0.7
				c0.23-4.03-1.9-5.41-5.53-5.41h-8.07l-0.02,16.31h9.47c5.98,0,8.2-1.05,10.36-6.93l0.63,0.26l-2.81,8.64l-27.89,0.04v-0.75
				c0.8,0,1.5-0.04,2.11-0.12c0.6-0.08,1.11-0.26,1.52-0.53c0.39-0.27,0.7-0.66,0.9-1.19c0.2-0.52,0.3-1.23,0.3-2.13v-31.48h22.66
				L1265.82,564.84z"/>
			<path class="st4" d="M1265.82,564.84l-0.63-0.01c0.14-4.04-1.6-6.76-6.96-6.76c-2.77,0-5.56-0.04-8.33-0.04
				c-0.39,0-0.72,0.16-0.98,0.51c-0.24,0.33-0.37,0.68-0.37,1.05v12.58h8.35c4,0,5.3-1.9,5.3-5.35h0.67v12.53h-0.7
				c0.23-4.03-1.9-5.41-5.53-5.41h-8.07l-0.02,16.31h9.47c5.98,0,8.2-1.05,10.36-6.93l0.63,0.26l-2.81,8.64l-27.89,0.04v-0.75
				c0.8,0,1.5-0.04,2.11-0.12c0.6-0.08,1.11-0.26,1.52-0.53c0.39-0.27,0.7-0.66,0.9-1.19c0.2-0.52,0.3-1.23,0.3-2.13v-31.48h22.66
				L1265.82,564.84z"/>
			<path class="st0" d="M1437.47,564.84l-0.63-0.01c0.14-4.04-1.6-6.76-6.96-6.76c-2.77,0-5.56-0.04-8.33-0.04
				c-0.39,0-0.72,0.16-0.98,0.51c-0.24,0.33-0.38,0.68-0.38,1.05v12.58h8.37c4,0,5.3-1.9,5.3-5.35h0.67v12.53h-0.7
				c0.23-4.03-1.9-5.41-5.54-5.41h-8.05l-0.04,16.31h9.49c5.98,0,8.2-1.05,10.36-6.93l0.63,0.26l-2.81,8.64l-27.89,0.04v-0.75
				c0.81,0,1.5-0.04,2.12-0.12c0.6-0.08,1.1-0.26,1.51-0.53c0.39-0.27,0.7-0.66,0.9-1.19c0.21-0.52,0.3-1.23,0.3-2.13v-31.48h22.66
				L1437.47,564.84z"/>
			<path class="st4" d="M1437.47,564.84l-0.63-0.01c0.14-4.04-1.6-6.76-6.96-6.76c-2.77,0-5.56-0.04-8.33-0.04
				c-0.39,0-0.72,0.16-0.98,0.51c-0.24,0.33-0.38,0.68-0.38,1.05v12.58h8.37c4,0,5.3-1.9,5.3-5.35h0.67v12.53h-0.7
				c0.23-4.03-1.9-5.41-5.54-5.41h-8.05l-0.04,16.31h9.49c5.98,0,8.2-1.05,10.36-6.93l0.63,0.26l-2.81,8.64l-27.89,0.04v-0.75
				c0.81,0,1.5-0.04,2.12-0.12c0.6-0.08,1.1-0.26,1.51-0.53c0.39-0.27,0.7-0.66,0.9-1.19c0.21-0.52,0.3-1.23,0.3-2.13v-31.48h22.66
				L1437.47,564.84z"/>
			<path class="st0" d="M1578.87,564.84l-0.61-0.01c0.14-4.04-1.6-6.76-6.97-6.76c-2.77,0-5.54-0.04-8.31-0.04
				c-0.41,0-0.74,0.16-0.98,0.51c-0.26,0.33-0.38,0.68-0.38,1.05v12.58h8.35c4.02,0,5.3-1.9,5.3-5.35h0.67v12.53h-0.7
				c0.23-4.03-1.88-5.41-5.53-5.41h-8.05l-0.04,16.31h9.47c5.98,0,8.2-1.05,10.36-6.93l0.64,0.26l-2.83,8.64l-27.89,0.04v-0.75
				c0.8,0,1.51-0.04,2.11-0.12c0.61-0.08,1.12-0.26,1.52-0.53c0.41-0.27,0.71-0.66,0.92-1.19c0.19-0.52,0.3-1.23,0.3-2.13v-31.48
				h22.66V564.84z"/>
			<path class="st4" d="M1578.87,564.84l-0.61-0.01c0.14-4.04-1.6-6.76-6.97-6.76c-2.77,0-5.54-0.04-8.31-0.04
				c-0.41,0-0.74,0.16-0.98,0.51c-0.26,0.33-0.38,0.68-0.38,1.05v12.58h8.35c4.02,0,5.3-1.9,5.3-5.35h0.67v12.53h-0.7
				c0.23-4.03-1.88-5.41-5.53-5.41h-8.05l-0.04,16.31h9.47c5.98,0,8.2-1.05,10.36-6.93l0.64,0.26l-2.83,8.64l-27.89,0.04v-0.75
				c0.8,0,1.51-0.04,2.11-0.12c0.61-0.08,1.12-0.26,1.52-0.53c0.41-0.27,0.71-0.66,0.92-1.19c0.19-0.52,0.3-1.23,0.3-2.13v-31.48
				h22.66V564.84z"/>
			<path class="st0" d="M1915,583.12l-0.56-0.15c-0.85,2.28-2.02,4.12-3.52,5.5c-1.5,1.38-3.52,2.08-6.06,2.08h-6.93
				c-1.19,0-1.97-0.22-2.33-0.63c-0.37-0.42-0.56-1.21-0.56-2.36v-31.55c-1.82,0-3.64-0.03-5.46,0l-0.01,4.93v32.49h22.13
				L1915,583.12z"/>
			<path class="st4" d="M1915,583.12l-0.56-0.15c-0.85,2.28-2.02,4.12-3.52,5.5c-1.5,1.38-3.52,2.08-6.06,2.08h-6.93
				c-1.19,0-1.97-0.22-2.33-0.63c-0.37-0.42-0.56-1.21-0.56-2.36v-31.55c-1.82,0-3.64-0.03-5.46,0l-0.01,4.93v32.49h22.13
				L1915,583.12z"/>
			<path class="st0" d="M931.18,583.12l-0.56-0.15c-0.85,2.28-2.02,4.12-3.52,5.5c-1.5,1.38-3.52,2.08-6.05,2.08h-6.95
				c-1.19,0-1.97-0.22-2.33-0.63c-0.37-0.42-0.56-1.21-0.56-2.36v-31.55c-1.82,0-3.64-0.03-5.46,0v37.42h22.11L931.18,583.12z"/>
			<path class="st4" d="M931.18,583.12l-0.56-0.15c-0.85,2.28-2.02,4.12-3.52,5.5c-1.5,1.38-3.52,2.08-6.05,2.08h-6.95
				c-1.19,0-1.97-0.22-2.33-0.63c-0.37-0.42-0.56-1.21-0.56-2.36v-31.55c-1.82,0-3.64-0.03-5.46,0v37.42h22.11L931.18,583.12z"/>
		</g>
		<path class="st1" d="M865.05,419.15l-2.99,0.18c0.45-13.17-3.88-21.76-21.35-21.76c-9.02,0-17.2,0.04-26.22,0.04
			c-10.05,0-7.14,38.93-7.56,45.92h29.48c13.01,0,17.21-6.2,17.21-17.43h2.17v40.83h-2.25c0.75-13.1-6.17-17.62-17.99-17.62h-28.5
			l-0.12,53.21h33.13c18.43,0,23.37,3.59,31.52-15.63l0.19,7.86l-7.46,14.2l-89.93,0.12l0.11-2.35c9.32,0,16.38-1.23,16.36-12.22
			l-0.22-103.48h74.37L865.05,419.15z"/>
		<path class="st1" d="M541.03,391.03l-16.38,0.16l-42.04,90.19l-38.43-90.19h-32.85v2.46c8.01,0,16.05,1.68,16.05,11.79v89.24
			c0,2.73-0.38,4.89-1.15,6.47c-0.76,1.58-1.86,2.79-3.27,3.6c-1.42,0.82-3.09,1.34-5,1.56c-1.91,0.22-4.11,0.42-6.4,0.42v2.66
			h23.92v-98.23l40.82,98.45l48.31-98.93l0.2,98.62l16.1,0.1L541.03,391.03z"/>
		<path class="st1" d="M1397.23,391.44l-16.38,0.16l-42.03,90.18l-38.43-90.18h-32.86v2.46c8.01,0,16.04,1.68,16.04,11.78v89.24
			c0,2.73-0.38,4.89-1.15,6.47c-0.77,1.59-1.86,2.79-3.28,3.61c-1.42,0.82-3.08,1.34-4.98,1.56c-1.91,0.22-4.12,0.44-6.42,0.44v2.66
			h23.93v-98.24l40.8,98.46l48.31-98.95l0.22,98.63l16.08,0.1L1397.23,391.44z"/>
		<path class="st1" d="M622.82,462.37l-36.17-0.11l18.67-42.77L622.82,462.37z M658.71,509.11l-48.68-118.22l-44.81,102.97
			c-0.71,1.64-1.52,3.22-2.27,4.79c-1.69,3.51-5.14,8.12-9.47,8.12v2.22h28.72v-2.16c-6.36,0-12.85-0.63-10-9.73
			c2.81-8.99,7.89-20.22,12.08-28.62l40.92,0.09c5.32,12.78,12.6,27.5,17.55,40.42L658.71,509.11z"/>
		<path class="st1" d="M957.01,401.37c-8.83-3.84-17.32-3.48-26.56-3.48c-2.72,0-4.15,0.16-5.47,0.61
			c-1.32,0.44-2.53,1.16-4.76,2.28c-6.2,3.07-2.54,87.88-3.24,99.69c12.19,4.7,27.29,4.34,39.3-0.82
			C995.93,482.61,996.53,418.54,957.01,401.37z M1006.7,452.65c0,27.53-17.61,46.4-43.19,53.5c-8.11,2.24-16.65,3.36-25.65,3.36
			h-53.9v-2.46c2.52,0,4.79-0.11,6.82-0.33c2.02-0.22,3.73-0.74,5.09-1.57c1.37-0.82,2.41-2.1,3.12-3.86
			c0.71-1.75,1.07-4.16,1.07-7.22V391.18l37.06,0.2c9.85,0.06,17.17,1,25.72,3.4C989.71,402.36,1006.7,424.53,1006.7,452.65z"/>
		<path class="st1" d="M1111.24,450.48h-0.16c0,5.54-0.55,11.45-1.62,17.76c-1.09,6.29-2.99,12.11-5.71,17.43
			c-2.72,5.32-6.39,9.75-11,13.28c-4.62,3.52-10.4,5.3-17.35,5.3c-6.84,0-12.55-1.78-17.11-5.3c-4.56-3.53-8.2-7.98-10.92-13.36
			c-2.72-5.38-4.64-11.21-5.77-17.51c-1.15-6.29-1.72-12.16-1.72-17.59c0-5.54,0.57-11.45,1.72-17.76
			c1.13-6.29,3.06-12.08,5.77-17.35c2.72-5.27,6.39-9.66,11-13.2c4.61-3.52,10.4-5.3,17.35-5.3c6.84,0,12.54,1.78,17.1,5.3
			c4.56,3.54,8.2,7.96,10.92,13.28c2.72,5.32,4.64,11.12,5.79,17.43C1110.67,439.19,1111.24,445.05,1111.24,450.48z M1130.95,451.13
			c0-8.04-1.27-15.7-3.82-22.97c-2.55-7.28-6.2-13.67-10.92-19.15c-4.72-5.47-10.48-9.85-17.27-13.1
			c-6.8-3.26-14.43-4.89-22.89-4.89c-8.59,0-16.3,1.54-23.14,4.64c-6.84,3.1-12.68,7.33-17.51,12.71
			c-4.83,5.38-8.56,11.67-11.17,18.89c-2.61,7.22-3.9,14.96-3.9,23.22c0,7.93,1.27,15.48,3.82,22.65c2.55,7.17,6.2,13.5,10.92,18.97
			c4.72,5.49,10.43,9.87,17.1,13.12c6.69,3.26,14.21,4.89,22.56,4.89c8.37,0,16-1.54,22.89-4.64c6.91-3.1,12.82-7.3,17.76-12.63
			c4.94-5.32,8.78-11.56,11.49-18.73C1129.6,466.92,1130.95,459.28,1130.95,451.13z"/>
		<path class="st1" d="M1914.63,450.38h-0.16c0,5.54-0.56,11.45-1.68,17.76c-1.12,6.29-3.07,12.11-5.87,17.43
			c-2.8,5.33-6.57,9.75-11.31,13.27c-4.75,3.54-10.7,5.3-17.86,5.3c-7.04,0-12.91-1.76-17.61-5.3c-4.69-3.52-8.44-7.97-11.23-13.35
			c-2.8-5.38-4.78-11.22-5.95-17.51c-1.17-6.31-1.76-12.16-1.76-17.59c0-5.54,0.59-11.47,1.76-17.76
			c1.17-6.31,3.16-12.08,5.95-17.35c2.8-5.27,6.57-9.68,11.32-13.2c4.75-3.54,10.7-5.3,17.85-5.3c7.05,0,12.91,1.76,17.61,5.3
			c4.7,3.52,8.44,7.96,11.23,13.28c2.8,5.31,4.78,11.13,5.95,17.43C1914.04,439.08,1914.63,444.95,1914.63,450.38z M1934.91,451.03
			c0-8.03-1.31-15.69-3.93-22.96c-2.64-7.29-6.37-13.66-11.23-19.15c-4.87-5.49-10.8-9.86-17.77-13.12
			c-6.99-3.25-14.84-4.89-23.56-4.89c-8.83,0-16.78,1.56-23.81,4.64c-7.04,3.1-13.05,7.34-18.03,12.71
			c-4.97,5.38-8.8,11.69-11.48,18.9c-2.69,7.22-4.03,14.96-4.03,23.22c0,7.93,1.31,15.48,3.95,22.64
			c2.62,7.17,6.36,13.49,11.23,18.97c4.86,5.49,10.73,9.85,17.6,13.12c6.88,3.26,14.62,4.89,23.23,4.89c8.6,0,16.45-1.54,23.55-4.64
			c7.1-3.1,13.2-7.3,18.28-12.63c5.09-5.32,9.02-11.57,11.82-18.74C1933.52,466.83,1934.91,459.17,1934.91,451.03z"/>
		<path class="st1" d="M1202.51,490.05c-7.13,7.7-20.61,13.27-30.68,7.6c-2.55-1.43-4.77-3.3-6.64-5.59
			c-1.86-2.28-3.33-4.87-4.4-7.75c-1.06-2.87-1.6-5.75-1.6-8.63c0-2.99,0.53-5.77,1.6-8.39c1.07-2.61,2.51-5.01,4.33-7.2
			c1.8-2.18,3.83-4.15,6.07-5.91c2.24-1.76,4.57-3.39,7.03-4.87C1184.94,463.47,1193.44,477.48,1202.51,490.05z M1207.64,412.05
			c0,5.65-1.61,10.55-4.8,14.72c-3.19,4.15-7.35,7.29-12.46,9.43c-1.49-3.74-2.8-7.46-3.92-11.19c-1.12-3.73-1.68-7.61-1.68-11.67
			c0-1.92,0.16-3.86,0.48-5.83c0.31-1.98,0.93-3.74,1.84-5.28c0.9-1.54,2.1-2.8,3.59-3.76c1.5-0.95,3.41-1.43,5.76-1.43
			c1.91,0,3.56,0.48,4.96,1.43c1.38,0.96,2.53,2.16,3.44,3.59c0.9,1.45,1.6,3.07,2.08,4.89
			C1207.39,408.75,1207.64,410.45,1207.64,412.05z M1253.96,492.85l-0.1-4.35c-2.06,9.46-12.27,10.76-19.93,7.73
			c-2.29-0.92-4.48-2.1-6.55-3.6c-2.08-1.49-4-3.19-5.76-5.11c-1.76-1.93-2.65-3.26-3.93-5.3c5.73-9.31,10.22-19.6,15.68-29.15
			c1.91-3.36,3.25-5.78,4-7.28c1.27-2.45,1.38-4.48,0.31-6.08c-1.06-1.6-2.5-2.58-4.31-2.95c-1.82-0.38-3.58,0-5.28,1.12
			c-1.69,1.12-2.55,3.17-2.55,6.14c0,11.22-5.02,24.62-12,33.4c-3.73-5.76-7.96-12.16-11.41-17.98c-3.47-5.8-6.64-11.91-9.52-18.29
			c2.88-1.28,5.77-2.85,8.71-4.72c2.94-1.86,5.54-4,7.83-6.39c2.29-2.4,4.18-5.09,5.66-8.08c1.5-2.97,2.24-6.22,2.24-9.75
			c0-2.88-0.53-5.6-1.6-8.15c-1.07-2.56-2.5-4.75-4.31-6.55c-1.82-1.82-4-3.25-6.55-4.31c-2.55-1.08-5.27-1.61-8.15-1.61
			c-4.05,0-7.67,0.75-10.88,2.24c-3.19,1.5-5.97,3.52-8.3,6.08c-2.35,2.56-4.13,5.54-5.36,8.95c-1.23,3.41-1.83,7.03-1.83,10.86
			c0,3.95,0.6,8.03,1.83,12.23c1.23,4.22,2.48,8.18,3.75,11.92c-3.73,2.44-7.45,4.93-11.18,7.43c-3.74,2.51-7.11,5.31-10.15,8.39
			c-3.03,3.09-5.51,6.55-7.43,10.39c-1.93,3.83-2.88,8.26-2.88,13.27c0,3.83,0.71,7.41,2.16,10.71c1.43,3.3,3.39,6.13,5.83,8.46
			c2.46,2.35,5.34,4.19,8.64,5.51c3.31,1.34,6.87,2.01,10.7,2.01c12.67,0,27.5-6.17,35.94-15.47c1.93,1.91,2.66,2.99,4.75,4.92
			c2.08,1.91,4.23,3.64,6.47,5.2c2.24,1.54,4.63,2.79,7.2,3.75c2.55,0.96,5.32,1.43,8.31,1.43
			C1245.36,509.88,1252.43,503.96,1253.96,492.85z"/>
		<path class="st1" d="M1514.05,465.49v-73.73h-7.58l-0.22,70.12c-0.03,10.32-0.08,20.29-6.5,28.94c-2.63,3.54-6.15,6.31-10.56,8.3
			c-4.41,1.99-9.84,2.99-16.3,2.99c-10.76,0-18.66-2.88-23.71-8.63c-5.05-5.76-7.59-13.86-7.59-24.28v-62.44
			c1.45-9.39,4.67-12.58,14.85-12.58v-2.42h-47.43v2.42c9.51,0,15.91,3.3,15.96,13.17l0.21,62.64c0.07,18.51,9.69,32.34,27.31,37.2
			c5.64,1.56,11.7,2.33,18.15,2.33c14.41,0,25.35-3.73,32.83-11.21C1510.94,490.86,1514.05,479.91,1514.05,465.49z"/>
		<path class="st1" d="M1631.85,480.66l-1.98-0.83c-6.88,20.13-17.57,22.24-33.24,22.24h-41.5l76.02-111.59l-92.74,0.11l-0.07,6.65
			l63.38-0.16l-75.54,111.91h98.36L1631.85,480.66z"/>
		<path class="st1" d="M1747.86,480.66l-1.98-0.83c-6.88,20.13-17.57,22.24-33.24,22.24h-41.5l76.02-111.59l-92.74,0.11l-0.07,6.65
			l63.39-0.16l-75.55,111.91h98.38L1747.86,480.66z"/>
		<path class="st1" d="M763.33,485.18l-0.03-3.64c-4.84,6.77-10.44,11.86-17.21,15.68c-6.79,3.81-14.36,5.72-22.76,5.72
			c-7.52,0-13.96-1.56-19.44-4.44c-35.6-18.67-34.37-77.71-1.13-97.37c5.28-3.11,11.54-4.83,18.96-4.83c4.83,0,9.46,0.84,13.87,2.5
			c4.41,1.67,8.37,4.02,11.86,7.02c3.49,3.02,6.4,6.57,8.71,10.65c2.32,4.1,3.79,8.56,4.44,13.39l2.46,0.09v-24.61l-2.46-0.16
			c-2.46,2.99-3.4,3.66-6.21-0.16c-1.34-1.83-3.28-3.79-5.8-5.88c-2.52-2.1-5.95-4.01-10.25-5.73c-4.3-1.72-9.99-2.58-17.11-2.58
			c-8.38,0-16.09,1.8-23.47,4.52c-54.31,19.93-53,88.89-2.58,109.54c7.07,2.89,14.54,4.84,22.82,4.84c9.9,0,18.88-2.46,26.95-7.34
			C753.02,497.49,758.17,493.56,763.33,485.18z"/>
		<path class="st1" d="M1759.52,506.76v2.47h51.13v-2.47c-2.65,0-4.98-0.11-7.02-0.34c-2.03-0.22-3.77-0.77-5.2-1.64
			c-1.42-0.89-2.5-2.2-3.21-3.96c-0.72-1.76-1.08-4.12-1.08-7.1V390.47h-17.81v103.25c0,2.98-0.38,5.34-1.15,7.1
			c-0.78,1.76-1.9,3.07-3.39,3.96c-1.49,0.87-3.28,1.42-5.36,1.64C1764.35,506.65,1762.04,506.76,1759.52,506.76z"/>
	</g>
	<g>
		<polygon class="st1" points="129.75,418.77 130.28,613.43 189.13,613.43 		"/>
		<polygon class="st1" points="261.45,418.77 260.9,613.43 202.06,613.43 		"/>
		<path class="st1" d="M88.53,386.55c0.19,63.95-0.3,144.59-0.11,208.56c-1.09,8.9-4.46,13.25-23.33,13.04v5.29l32.86-0.01
			l0.16-226.84L88.53,386.55z"/>
		<path class="st1" d="M301.33,386.55c-0.19,63.95,0.29,144.59,0.09,208.56c1.11,8.9,4.48,13.25,23.34,13.04v5.29l-32.87-0.01
			l-0.16-226.84L301.33,386.55z"/>
	</g>
</g>
</svg>
