<svg id="Camada_1" data-name="Camada 1" xmlns="http://www.w3.org/2000/svg" viewBox="0 0 2000 350"><defs><style>.cls-1,.cls-4{fill:#002a5f;}.cls-2{fill:#fff;}.cls-2,.cls-4,.cls-5{fill-rule:evenodd;}.cls-3{fill:none;stroke:#fff;stroke-width:0.16px;}.cls-5{fill:#6e7071;}</style></defs><rect class="cls-1" x="411" y="216.1" width="1521.07" height="68.43"/><path class="cls-2" d="M1762.28,266.8v.76H1778v-.76a19.86,19.86,0,0,1-2.16-.1,3.68,3.68,0,0,1-1.59-.5,2.42,2.42,0,0,1-1-1.22,5.78,5.78,0,0,1-.33-2.17V231.18h-5.47v31.63a5.53,5.53,0,0,1-.36,2.17,2.56,2.56,0,0,1-1,1.22,3.91,3.91,0,0,1-1.65.5A19.65,19.65,0,0,1,1762.28,266.8Z"/><path class="cls-3" d="M1762.28,266.8v.76H1778v-.76a19.86,19.86,0,0,1-2.16-.1,3.68,3.68,0,0,1-1.59-.5,2.42,2.42,0,0,1-1-1.22,5.78,5.78,0,0,1-.33-2.17V231.18h-5.47v31.63a5.53,5.53,0,0,1-.36,2.17,2.56,2.56,0,0,1-1,1.22,3.91,3.91,0,0,1-1.65.5A19.65,19.65,0,0,1,1762.28,266.8Z"/><path class="cls-2" d="M1726,259.48l-.4-.35a17.06,17.06,0,0,1-5.46,5,14.34,14.34,0,0,1-7.16,1.8,12.58,12.58,0,0,1-6.1-1.4,12,12,0,0,1-4.18-3.68,16.72,16.72,0,0,1-2.41-5.25,24.11,24.11,0,0,1-.78-6.15,25.74,25.74,0,0,1,.71-6,17.17,17.17,0,0,1,2.28-5.44,12.85,12.85,0,0,1,4-3.94,11.1,11.1,0,0,1,6-1.51,11.78,11.78,0,0,1,4.35.79,12.11,12.11,0,0,1,3.73,2.19,12.49,12.49,0,0,1,2.74,3.34,11.33,11.33,0,0,1,1.39,4.19l.51-.1v-7.58l-.51-.05-.41.65-.3.21a1.94,1.94,0,0,1-1.24-.92,10.84,10.84,0,0,0-1.83-1.84,12,12,0,0,0-3.22-1.79,14.71,14.71,0,0,0-5.36-.81,19.1,19.1,0,0,0-13.35,5.28,17.68,17.68,0,0,0-4,5.84,18.16,18.16,0,0,0-1.47,7.32,19.7,19.7,0,0,0,1.32,7.21,18.51,18.51,0,0,0,3.7,6,17.7,17.7,0,0,0,5.65,4.1,16.78,16.78,0,0,0,7.17,1.51,16.08,16.08,0,0,0,8.46-2.29A18.65,18.65,0,0,0,1726,259.48Z"/><path class="cls-3" d="M1726,259.48l-.4-.35a17.06,17.06,0,0,1-5.46,5,14.34,14.34,0,0,1-7.16,1.8,12.58,12.58,0,0,1-6.1-1.4,12,12,0,0,1-4.18-3.68,16.72,16.72,0,0,1-2.41-5.25,24.11,24.11,0,0,1-.78-6.15,25.74,25.74,0,0,1,.71-6,17.17,17.17,0,0,1,2.28-5.44,12.85,12.85,0,0,1,4-3.94,11.1,11.1,0,0,1,6-1.51,11.78,11.78,0,0,1,4.35.79,12.11,12.11,0,0,1,3.73,2.19,12.49,12.49,0,0,1,2.74,3.34,11.33,11.33,0,0,1,1.39,4.19l.51-.1v-7.58l-.51-.05-.41.65-.3.21a1.94,1.94,0,0,1-1.24-.92,10.84,10.84,0,0,0-1.83-1.84,12,12,0,0,0-3.22-1.79,14.71,14.71,0,0,0-5.36-.81,19.1,19.1,0,0,0-13.35,5.28,17.68,17.68,0,0,0-4,5.84,18.16,18.16,0,0,0-1.47,7.32,19.7,19.7,0,0,0,1.32,7.21,18.51,18.51,0,0,0,3.7,6,17.7,17.7,0,0,0,5.65,4.1,16.78,16.78,0,0,0,7.17,1.51,16.08,16.08,0,0,0,8.46-2.29A18.65,18.65,0,0,0,1726,259.48Z"/><path class="cls-2" d="M1373.83,248.86v-.7h-9.77v15.25a11.85,11.85,0,0,1-3.58,2,12.2,12.2,0,0,1-4,.67,13.24,13.24,0,0,1-11-5.27,16.63,16.63,0,0,1-2.73-5.49,22.18,22.18,0,0,1-.92-6.36,20.18,20.18,0,0,1,.94-6.09,16.52,16.52,0,0,1,2.74-5.25,13.68,13.68,0,0,1,4.43-3.69,12.77,12.77,0,0,1,6.08-1.39,12.91,12.91,0,0,1,12.32,8.5h.82c-2.17-7.3-6.37-10.42-13.75-10.42a19.87,19.87,0,0,0-7.8,1.51,19,19,0,0,0-6.24,4.21,19.71,19.71,0,0,0-4.15,6.27,19.93,19.93,0,0,0-1.51,7.77,16.39,16.39,0,0,0,1.61,7.4,17,17,0,0,0,4.36,5.53,19.82,19.82,0,0,0,6.28,3.48,22.55,22.55,0,0,0,7.45,1.21,30,30,0,0,0,7.29-.9,26,26,0,0,0,6.79-2.78V252.92a4,4,0,0,1,1.12-3.14,4.3,4.3,0,0,1,3.19-.91Z"/><path class="cls-3" d="M1373.83,248.86v-.7h-9.77v15.25a11.85,11.85,0,0,1-3.58,2,12.2,12.2,0,0,1-4,.67,13.24,13.24,0,0,1-11-5.27,16.63,16.63,0,0,1-2.73-5.49,22.18,22.18,0,0,1-.92-6.36,20.18,20.18,0,0,1,.94-6.09,16.52,16.52,0,0,1,2.74-5.25,13.68,13.68,0,0,1,4.43-3.69,12.77,12.77,0,0,1,6.08-1.39,12.91,12.91,0,0,1,12.32,8.5h.82c-2.17-7.3-6.37-10.42-13.75-10.42a19.87,19.87,0,0,0-7.8,1.51,19,19,0,0,0-6.24,4.21,19.71,19.71,0,0,0-4.15,6.27,19.93,19.93,0,0,0-1.51,7.77,16.39,16.39,0,0,0,1.61,7.4,17,17,0,0,0,4.36,5.53,19.82,19.82,0,0,0,6.28,3.48,22.55,22.55,0,0,0,7.45,1.21,30,30,0,0,0,7.29-.9,26,26,0,0,0,6.79-2.78V252.92a4,4,0,0,1,1.12-3.14,4.3,4.3,0,0,1,3.19-.91Z"/><path class="cls-2" d="M966.66,266.8v.76h15.71v-.76a19.42,19.42,0,0,1-2.15-.1,3.68,3.68,0,0,1-1.6-.5,2.47,2.47,0,0,1-1-1.22,6,6,0,0,1-.32-2.17V231.18h-5.48v31.63a5.55,5.55,0,0,1-.35,2.17,2.56,2.56,0,0,1-1,1.22,4,4,0,0,1-1.65.5A19.78,19.78,0,0,1,966.66,266.8Z"/><path class="cls-3" d="M966.66,266.8v.76h15.71v-.76a19.42,19.42,0,0,1-2.15-.1,3.68,3.68,0,0,1-1.6-.5,2.47,2.47,0,0,1-1-1.22,6,6,0,0,1-.32-2.17V231.18h-5.48v31.63a5.55,5.55,0,0,1-.35,2.17,2.56,2.56,0,0,1-1,1.22,4,4,0,0,1-1.65.5A19.78,19.78,0,0,1,966.66,266.8Z"/><path class="cls-2" d="M843.68,266.8v.76H859.4v-.76a19.73,19.73,0,0,1-2.16-.1,3.68,3.68,0,0,1-1.6-.5,2.51,2.51,0,0,1-1-1.22,5.57,5.57,0,0,1-.34-2.17V231.18h-5.46v31.63a5.35,5.35,0,0,1-.36,2.17,2.6,2.6,0,0,1-1,1.22,4,4,0,0,1-1.65.5A20.11,20.11,0,0,1,843.68,266.8Z"/><path class="cls-3" d="M843.68,266.8v.76H859.4v-.76a19.73,19.73,0,0,1-2.16-.1,3.68,3.68,0,0,1-1.6-.5,2.51,2.51,0,0,1-1-1.22,5.57,5.57,0,0,1-.34-2.17V231.18h-5.46v31.63a5.35,5.35,0,0,1-.36,2.17,2.6,2.6,0,0,1-1,1.22,4,4,0,0,1-1.65.5A20.11,20.11,0,0,1,843.68,266.8Z"/><path class="cls-2" d="M656.13,267.66v.76h15.7v-.76a19.86,19.86,0,0,1-2.16-.1,3.68,3.68,0,0,1-1.58-.5,2.44,2.44,0,0,1-1-1.22,6,6,0,0,1-.33-2.17V232h-5.47v31.63a5.37,5.37,0,0,1-.35,2.17,2.56,2.56,0,0,1-1,1.22,3.86,3.86,0,0,1-1.64.5A19.78,19.78,0,0,1,656.13,267.66Z"/><path class="cls-3" d="M656.13,267.66v.76h15.7v-.76a19.86,19.86,0,0,1-2.16-.1,3.68,3.68,0,0,1-1.58-.5,2.44,2.44,0,0,1-1-1.22,6,6,0,0,1-.33-2.17V232h-5.47v31.63a5.37,5.37,0,0,1-.35,2.17,2.56,2.56,0,0,1-1,1.22,3.86,3.86,0,0,1-1.64.5A19.78,19.78,0,0,1,656.13,267.66Z"/><path class="cls-2" d="M679.05,230.82h-30.2l-.59,8.32H649a6.68,6.68,0,0,1,.5-3,4.85,4.85,0,0,1,1.56-1.94,6.35,6.35,0,0,1,2.32-1.07,13,13,0,0,1,3-.32h5V267.2h5.47V232.84H679Z"/><path class="cls-3" d="M679.05,230.82h-30.2l-.59,8.32H649a6.68,6.68,0,0,1,.5-3,4.85,4.85,0,0,1,1.56-1.94,6.35,6.35,0,0,1,2.32-1.07,13,13,0,0,1,3-.32h5V267.2h5.47V232.84H679Z"/><path class="cls-2" d="M568.91,267.56v.71l7.49,0,0-26.71,22.1,26.67,3.49,0V231.09h-2v30.6l-25.19-30.56h-.45v32.39a4.57,4.57,0,0,1-.41,2.12,2.91,2.91,0,0,1-1.13,1.27,4.18,4.18,0,0,1-1.69.57A13.23,13.23,0,0,1,568.91,267.56Z"/><path class="cls-3" d="M568.91,267.56v.71l7.49,0,0-26.71,22.1,26.67,3.49,0V231.09h-2v30.6l-25.19-30.56h-.45v32.39a4.57,4.57,0,0,1-.41,2.12,2.91,2.91,0,0,1-1.13,1.27,4.18,4.18,0,0,1-1.69.57A13.23,13.23,0,0,1,568.91,267.56Z"/><path class="cls-2" d="M1617.84,267.7v.71l7.5,0,0-26.73,22.08,26.68,3.5-.05V231.23h-2v30.61l-25.19-30.56h-.46v32.38a4.85,4.85,0,0,1-.4,2.13,3.06,3.06,0,0,1-1.14,1.25,4,4,0,0,1-1.7.59A12.15,12.15,0,0,1,1617.84,267.7Z"/><path class="cls-3" d="M1617.84,267.7v.71l7.5,0,0-26.73,22.08,26.68,3.5-.05V231.23h-2v30.61l-25.19-30.56h-.46v32.38a4.85,4.85,0,0,1-.4,2.13,3.06,3.06,0,0,1-1.14,1.25,4,4,0,0,1-1.7.59A12.15,12.15,0,0,1,1617.84,267.7Z"/><path class="cls-2" d="M460.15,259.48l-.39-.35a17,17,0,0,1-5.47,5,14.29,14.29,0,0,1-7.14,1.8,12.61,12.61,0,0,1-6.12-1.4,12,12,0,0,1-4.18-3.68,16.48,16.48,0,0,1-2.4-5.25,23.68,23.68,0,0,1-.79-6.15,26.85,26.85,0,0,1,.71-6,17.17,17.17,0,0,1,2.28-5.44,12.85,12.85,0,0,1,4-3.94,11.15,11.15,0,0,1,5.95-1.51,12,12,0,0,1,4.37.79,12.37,12.37,0,0,1,6.45,5.53,11.33,11.33,0,0,1,1.39,4.19l.51-.1v-7.58l-.51-.05-.4.65-.31.21a1.94,1.94,0,0,1-1.24-.92,10.48,10.48,0,0,0-1.83-1.84,11.83,11.83,0,0,0-3.2-1.79,14.75,14.75,0,0,0-5.38-.81,19.1,19.1,0,0,0-13.35,5.28,17.68,17.68,0,0,0-4,5.84,18.16,18.16,0,0,0-1.46,7.32,20.12,20.12,0,0,0,1.31,7.21,18.86,18.86,0,0,0,3.7,6,17.7,17.7,0,0,0,5.65,4.1,16.78,16.78,0,0,0,7.17,1.51,16.05,16.05,0,0,0,8.46-2.29A18.56,18.56,0,0,0,460.15,259.48Z"/><path class="cls-3" d="M460.15,259.48l-.39-.35a17,17,0,0,1-5.47,5,14.29,14.29,0,0,1-7.14,1.8,12.61,12.61,0,0,1-6.12-1.4,12,12,0,0,1-4.18-3.68,16.48,16.48,0,0,1-2.4-5.25,23.68,23.68,0,0,1-.79-6.15,26.85,26.85,0,0,1,.71-6,17.17,17.17,0,0,1,2.28-5.44,12.85,12.85,0,0,1,4-3.94,11.15,11.15,0,0,1,5.95-1.51,12,12,0,0,1,4.37.79,12.37,12.37,0,0,1,6.45,5.53,11.33,11.33,0,0,1,1.39,4.19l.51-.1v-7.58l-.51-.05-.4.65-.31.21a1.94,1.94,0,0,1-1.24-.92,10.48,10.48,0,0,0-1.83-1.84,11.83,11.83,0,0,0-3.2-1.79,14.75,14.75,0,0,0-5.38-.81,19.1,19.1,0,0,0-13.35,5.28,17.68,17.68,0,0,0-4,5.84,18.16,18.16,0,0,0-1.46,7.32,20.12,20.12,0,0,0,1.31,7.21,18.86,18.86,0,0,0,3.7,6,17.7,17.7,0,0,0,5.65,4.1,16.78,16.78,0,0,0,7.17,1.51,16.05,16.05,0,0,0,8.46-2.29A18.56,18.56,0,0,0,460.15,259.48Z"/><path class="cls-2" d="M528.39,249.68h0a34.46,34.46,0,0,1-.51,5.6,19.33,19.33,0,0,1-1.81,5.5,12.22,12.22,0,0,1-3.48,4.19,8.76,8.76,0,0,1-5.5,1.67,8.53,8.53,0,0,1-5.4-1.67,12.29,12.29,0,0,1-3.46-4.22,19.87,19.87,0,0,1-1.83-5.53,30.21,30.21,0,0,1-.54-5.54,30.61,30.61,0,0,1,.54-5.61,19.26,19.26,0,0,1,1.83-5.47,12.15,12.15,0,0,1,3.48-4.17,8.76,8.76,0,0,1,5.49-1.68,8.59,8.59,0,0,1,5.42,1.68,12.39,12.39,0,0,1,3.45,4.19,20,20,0,0,1,1.83,5.5A31.17,31.17,0,0,1,528.39,249.68Zm6.24.21a21.59,21.59,0,0,0-1.2-7.25,18.76,18.76,0,0,0-3.45-6,16.72,16.72,0,0,0-5.48-4.14,16.49,16.49,0,0,0-7.23-1.54,17.76,17.76,0,0,0-7.33,1.46,16.48,16.48,0,0,0-5.54,4,18,18,0,0,0-3.54,6,22.15,22.15,0,0,0,0,14.47,18.86,18.86,0,0,0,3.47,6,16.52,16.52,0,0,0,5.41,4.14,16.19,16.19,0,0,0,7.13,1.54,17.65,17.65,0,0,0,7.25-1.46,17.25,17.25,0,0,0,5.63-4,18,18,0,0,0,3.63-5.91A20.21,20.21,0,0,0,534.63,249.89Z"/><path class="cls-3" d="M528.39,249.68h0a34.46,34.46,0,0,1-.51,5.6,19.33,19.33,0,0,1-1.81,5.5,12.22,12.22,0,0,1-3.48,4.19,8.76,8.76,0,0,1-5.5,1.67,8.53,8.53,0,0,1-5.4-1.67,12.29,12.29,0,0,1-3.46-4.22,19.87,19.87,0,0,1-1.83-5.53,30.21,30.21,0,0,1-.54-5.54,30.61,30.61,0,0,1,.54-5.61,19.26,19.26,0,0,1,1.83-5.47,12.15,12.15,0,0,1,3.48-4.17,8.76,8.76,0,0,1,5.49-1.68,8.59,8.59,0,0,1,5.42,1.68,12.39,12.39,0,0,1,3.45,4.19,20,20,0,0,1,1.83,5.5A31.17,31.17,0,0,1,528.39,249.68Zm6.24.21a21.59,21.59,0,0,0-1.2-7.25,18.76,18.76,0,0,0-3.45-6,16.72,16.72,0,0,0-5.48-4.14,16.49,16.49,0,0,0-7.23-1.54,17.76,17.76,0,0,0-7.33,1.46,16.48,16.48,0,0,0-5.54,4,18,18,0,0,0-3.54,6,22.15,22.15,0,0,0,0,14.47,18.86,18.86,0,0,0,3.47,6,16.52,16.52,0,0,0,5.41,4.14,16.19,16.19,0,0,0,7.13,1.54,17.65,17.65,0,0,0,7.25-1.46,17.25,17.25,0,0,0,5.63-4,18,18,0,0,0,3.63-5.91A20.21,20.21,0,0,0,534.63,249.89Z"/><path class="cls-2" d="M730.29,254.34H718.17l6.17-14.27Zm11.88,14.15-15.86-37.71-.37.05-14.35,32.8c-.24.52-.47,1-.72,1.53a7.52,7.52,0,0,1-.83,1.33,3.85,3.85,0,0,1-1.14.89,3.78,3.78,0,0,1-1.66.33v.78h10.32v-.72h-1.2a4.69,4.69,0,0,1-1.3-.18,2.39,2.39,0,0,1-1-.6,1.45,1.45,0,0,1-.45-1.13,4.58,4.58,0,0,1,.26-1.19c.18-.55.39-1.18.68-1.86s.56-1.41.88-2.14.59-1.42.88-2.05L717,257l.36-.78H731q1.29,3.11,2.54,6.13c.82,2,1.64,4.05,2.43,6.11Z"/><path class="cls-3" d="M730.29,254.34H718.17l6.17-14.27Zm11.88,14.15-15.86-37.71-.37.05-14.35,32.8c-.24.52-.47,1-.72,1.53a7.52,7.52,0,0,1-.83,1.33,3.85,3.85,0,0,1-1.14.89,3.78,3.78,0,0,1-1.66.33v.78h10.32v-.72h-1.2a4.69,4.69,0,0,1-1.3-.18,2.39,2.39,0,0,1-1-.6,1.45,1.45,0,0,1-.45-1.13,4.58,4.58,0,0,1,.26-1.19c.18-.55.39-1.18.68-1.86s.56-1.41.88-2.14.59-1.42.88-2.05L717,257l.36-.78H731q1.29,3.11,2.54,6.13c.82,2,1.64,4.05,2.43,6.11Z"/><path class="cls-2" d="M1116.1,254.34H1104l6.17-14.27ZM1128,268.49l-15.85-37.71-.37.05-14.35,32.8c-.25.52-.49,1-.72,1.53a7,7,0,0,1-.84,1.33,3.39,3.39,0,0,1-2.79,1.22v.78h10.3v-.72h-1.18a4.69,4.69,0,0,1-1.3-.18,2.52,2.52,0,0,1-1.07-.6,1.51,1.51,0,0,1-.43-1.13,4.19,4.19,0,0,1,.26-1.19c.17-.55.39-1.18.67-1.86s.57-1.41.88-2.14l.88-2.05c.28-.61.51-1.15.73-1.59l.36-.78h13.68q1.31,3.11,2.54,6.13c.83,2,1.65,4.05,2.44,6.11Z"/><path class="cls-3" d="M1116.1,254.34H1104l6.17-14.27ZM1128,268.49l-15.85-37.71-.37.05-14.35,32.8c-.25.52-.49,1-.72,1.53a7,7,0,0,1-.84,1.33,3.39,3.39,0,0,1-2.79,1.22v.78h10.3v-.72h-1.18a4.69,4.69,0,0,1-1.3-.18,2.52,2.52,0,0,1-1.07-.6,1.51,1.51,0,0,1-.43-1.13,4.19,4.19,0,0,1,.26-1.19c.17-.55.39-1.18.67-1.86s.57-1.41.88-2.14l.88-2.05c.28-.61.51-1.15.73-1.59l.36-.78h13.68q1.31,3.11,2.54,6.13c.83,2,1.65,4.05,2.44,6.11Z"/><path class="cls-2" d="M1837.23,254.34h-12.12l6.17-14.27Zm11.88,14.15-15.87-37.71-.35.05-14.36,32.8c-.25.52-.48,1-.72,1.53a7,7,0,0,1-.84,1.33,3.69,3.69,0,0,1-1.13.89,3.79,3.79,0,0,1-1.67.33v.78h10.32v-.72h-1.2a4.62,4.62,0,0,1-1.29-.18,2.43,2.43,0,0,1-1.06-.6,1.48,1.48,0,0,1-.44-1.13,4.91,4.91,0,0,1,.25-1.19c.18-.55.4-1.18.69-1.86s.56-1.41.87-2.14.61-1.42.89-2.05.51-1.15.72-1.59l.36-.78H1838l2.54,6.13c.81,2,1.63,4.05,2.42,6.11Z"/><path class="cls-3" d="M1837.23,254.34h-12.12l6.17-14.27Zm11.88,14.15-15.87-37.71-.35.05-14.36,32.8c-.25.52-.48,1-.72,1.53a7,7,0,0,1-.84,1.33,3.69,3.69,0,0,1-1.13.89,3.79,3.79,0,0,1-1.67.33v.78h10.32v-.72h-1.2a4.62,4.62,0,0,1-1.29-.18,2.43,2.43,0,0,1-1.06-.6,1.48,1.48,0,0,1-.44-1.13,4.91,4.91,0,0,1,.25-1.19c.18-.55.4-1.18.69-1.86s.56-1.41.87-2.14.61-1.42.89-2.05.51-1.15.72-1.59l.36-.78H1838l2.54,6.13c.81,2,1.63,4.05,2.42,6.11Z"/><path class="cls-2" d="M790.44,233.4a2.9,2.9,0,0,0-1.15.61,2.35,2.35,0,0,0-.78,1V249c.48.11,1,.19,1.45.26a14.56,14.56,0,0,0,1.46.11C805.56,249.54,800.52,230.94,790.44,233.4Zm2,18a16.47,16.47,0,0,0-1.9.14c-.6.08-1.23.19-1.9.33v14.53l1.4.21c.45.07.93.07,1.41.11,4,.29,8.88-2.42,9.59-7.41C801.57,255.35,798.22,251.17,792.41,251.37Zm7.44-1c10.24,2.16,10,11.16,4.37,15.69-2.2,1.78-5.12,2.22-8.72,2.28-1,0-2,0-3,0H778v-.72a13.13,13.13,0,0,0,1.4-.09,7.55,7.55,0,0,0,1.63-.3,3.57,3.57,0,0,0,1.32-.71,1.65,1.65,0,0,0,.55-1.34V231h11.19a20.6,20.6,0,0,1,5,.49C808.85,234,809.83,247.66,799.85,250.33Z"/><path class="cls-3" d="M790.44,233.4a2.9,2.9,0,0,0-1.15.61,2.35,2.35,0,0,0-.78,1V249c.48.11,1,.19,1.45.26a14.56,14.56,0,0,0,1.46.11C805.56,249.54,800.52,230.94,790.44,233.4Zm2,18a16.47,16.47,0,0,0-1.9.14c-.6.08-1.23.19-1.9.33v14.53l1.4.21c.45.07.93.07,1.41.11,4,.29,8.88-2.42,9.59-7.41C801.57,255.35,798.22,251.17,792.41,251.37Zm7.44-1c10.24,2.16,10,11.16,4.37,15.69-2.2,1.78-5.12,2.22-8.72,2.28-1,0-2,0-3,0H778v-.72a13.13,13.13,0,0,0,1.4-.09,7.55,7.55,0,0,0,1.63-.3,3.57,3.57,0,0,0,1.32-.71,1.65,1.65,0,0,0,.55-1.34V231h11.19a20.6,20.6,0,0,1,5,.49C808.85,234,809.83,247.66,799.85,250.33Z"/><path class="cls-2" d="M1054.51,250h0a21.66,21.66,0,0,0-1-6.66,15.1,15.1,0,0,0-2.93-5.35,13.64,13.64,0,0,0-4.82-3.58,16.2,16.2,0,0,0-6.67-1.28h-1.45a11.45,11.45,0,0,0-1.92.15,7.22,7.22,0,0,0-1.73.49,1.11,1.11,0,0,0-.72,1.06c0,5.14,0,10.27.06,15.4s0,10.25,0,15.4a15.78,15.78,0,0,0,5.6,1,16,16,0,0,0,6.55-1.29,14.18,14.18,0,0,0,4.9-3.55,15.45,15.45,0,0,0,3.06-5.3A19.68,19.68,0,0,0,1054.51,250Zm6.39.56a17.52,17.52,0,0,1-1.71,8,16,16,0,0,1-4.65,5.56,20.11,20.11,0,0,1-6.77,3.27,30.18,30.18,0,0,1-8.1,1.05h-17v-.77a19.8,19.8,0,0,0,2.16-.11,4,4,0,0,0,1.61-.49,2.44,2.44,0,0,0,1-1.21,6.12,6.12,0,0,0,.34-2.28V231.21h11.11a31.77,31.77,0,0,1,8.73,1.15,19.09,19.09,0,0,1,7,3.52,16.27,16.27,0,0,1,4.64,6A20.44,20.44,0,0,1,1060.9,250.57Z"/><path class="cls-3" d="M1054.51,250h0a21.66,21.66,0,0,0-1-6.66,15.1,15.1,0,0,0-2.93-5.35,13.64,13.64,0,0,0-4.82-3.58,16.2,16.2,0,0,0-6.67-1.28h-1.45a11.45,11.45,0,0,0-1.92.15,7.22,7.22,0,0,0-1.73.49,1.11,1.11,0,0,0-.72,1.06c0,5.14,0,10.27.06,15.4s0,10.25,0,15.4a15.78,15.78,0,0,0,5.6,1,16,16,0,0,0,6.55-1.29,14.18,14.18,0,0,0,4.9-3.55,15.45,15.45,0,0,0,3.06-5.3A19.68,19.68,0,0,0,1054.51,250Zm6.39.56a17.52,17.52,0,0,1-1.71,8,16,16,0,0,1-4.65,5.56,20.11,20.11,0,0,1-6.77,3.27,30.18,30.18,0,0,1-8.1,1.05h-17v-.77a19.8,19.8,0,0,0,2.16-.11,4,4,0,0,0,1.61-.49,2.44,2.44,0,0,0,1-1.21,6.12,6.12,0,0,0,.34-2.28V231.21h11.11a31.77,31.77,0,0,1,8.73,1.15,19.09,19.09,0,0,1,7,3.52,16.27,16.27,0,0,1,4.64,6A20.44,20.44,0,0,1,1060.9,250.57Z"/><path class="cls-2" d="M1195.25,250h-.06a22,22,0,0,0-1-6.66,15.28,15.28,0,0,0-2.94-5.35,13.5,13.5,0,0,0-4.83-3.58,16.09,16.09,0,0,0-6.66-1.28h-1.46a11.79,11.79,0,0,0-1.92.15,6.8,6.8,0,0,0-1.71.49,1.09,1.09,0,0,0-.72,1.06q0,7.71,0,15.4t0,15.4a15.75,15.75,0,0,0,5.61,1,16,16,0,0,0,6.54-1.29,14.13,14.13,0,0,0,4.91-3.55,15.62,15.62,0,0,0,3.06-5.3A19.68,19.68,0,0,0,1195.25,250Zm6.39.56a17.52,17.52,0,0,1-1.72,8,16.08,16.08,0,0,1-4.64,5.56,20.39,20.39,0,0,1-6.79,3.27,30.1,30.1,0,0,1-8.09,1.05h-17v-.77a20.07,20.07,0,0,0,2.16-.11,3.92,3.92,0,0,0,1.61-.49,2.55,2.55,0,0,0,1-1.21,6.3,6.3,0,0,0,.35-2.28V231.21h11.09a31.61,31.61,0,0,1,8.73,1.15,19.13,19.13,0,0,1,7,3.52,16.37,16.37,0,0,1,4.64,6A20.59,20.59,0,0,1,1201.64,250.57Z"/><path class="cls-3" d="M1195.25,250h-.06a22,22,0,0,0-1-6.66,15.28,15.28,0,0,0-2.94-5.35,13.5,13.5,0,0,0-4.83-3.58,16.09,16.09,0,0,0-6.66-1.28h-1.46a11.79,11.79,0,0,0-1.92.15,6.8,6.8,0,0,0-1.71.49,1.09,1.09,0,0,0-.72,1.06q0,7.71,0,15.4t0,15.4a15.75,15.75,0,0,0,5.61,1,16,16,0,0,0,6.54-1.29,14.13,14.13,0,0,0,4.91-3.55,15.62,15.62,0,0,0,3.06-5.3A19.68,19.68,0,0,0,1195.25,250Zm6.39.56a17.52,17.52,0,0,1-1.72,8,16.08,16.08,0,0,1-4.64,5.56,20.39,20.39,0,0,1-6.79,3.27,30.1,30.1,0,0,1-8.09,1.05h-17v-.77a20.07,20.07,0,0,0,2.16-.11,3.92,3.92,0,0,0,1.61-.49,2.55,2.55,0,0,0,1-1.21,6.3,6.3,0,0,0,.35-2.28V231.21h11.09a31.61,31.61,0,0,1,8.73,1.15,19.13,19.13,0,0,1,7,3.52,16.37,16.37,0,0,1,4.64,6A20.59,20.59,0,0,1,1201.64,250.57Z"/><path class="cls-2" d="M1502.14,240.86a7.2,7.2,0,0,1-1,3.84,7.41,7.41,0,0,1-2.5,2.48,10.69,10.69,0,0,1-3.45,1.33,19.58,19.58,0,0,1-3.89.38h-.58a2.94,2.94,0,0,1-.51,0V233.51a8.79,8.79,0,0,1,1.87-.65,8.2,8.2,0,0,1,2-.23,8.64,8.64,0,0,1,3.36.62A7.71,7.71,0,0,1,1500,235a7.22,7.22,0,0,1,1.61,2.59A9.52,9.52,0,0,1,1502.14,240.86Zm13.87,27.4v-.73a5.92,5.92,0,0,1-3.8-1.16,16.25,16.25,0,0,1-2.85-2.93l-10.07-13.31a20.24,20.24,0,0,0,3.56-1.24,11,11,0,0,0,2.94-1.94,8.51,8.51,0,0,0,2-2.77,8.78,8.78,0,0,0,.74-3.73,9.08,9.08,0,0,0-1-4.58,8,8,0,0,0-2.77-2.94,11.9,11.9,0,0,0-4-1.53,25,25,0,0,0-4.63-.44H1484.6c-.19,0,0,31.39-.08,33.44a3.19,3.19,0,0,1-.3,1.64,2.53,2.53,0,0,1-1.1,1,4.74,4.74,0,0,1-1.58.44,8.27,8.27,0,0,1-1.73,0v.73h10.45V250.65h3.31l11.28,14.92a17,17,0,0,0,1.27,1.58,5.92,5.92,0,0,0,1.31,1.06,5.16,5.16,0,0,0,1.55.6,10.58,10.58,0,0,0,2.11.17A16.89,16.89,0,0,0,1516,268.26Z"/><path class="cls-3" d="M1502.14,240.86a7.2,7.2,0,0,1-1,3.84,7.41,7.41,0,0,1-2.5,2.48,10.69,10.69,0,0,1-3.45,1.33,19.58,19.58,0,0,1-3.89.38h-.58a2.94,2.94,0,0,1-.51,0V233.51a8.79,8.79,0,0,1,1.87-.65,8.2,8.2,0,0,1,2-.23,8.64,8.64,0,0,1,3.36.62A7.71,7.71,0,0,1,1500,235a7.22,7.22,0,0,1,1.61,2.59A9.52,9.52,0,0,1,1502.14,240.86Zm13.87,27.4v-.73a5.92,5.92,0,0,1-3.8-1.16,16.25,16.25,0,0,1-2.85-2.93l-10.07-13.31a20.24,20.24,0,0,0,3.56-1.24,11,11,0,0,0,2.94-1.94,8.51,8.51,0,0,0,2-2.77,8.78,8.78,0,0,0,.74-3.73,9.08,9.08,0,0,0-1-4.58,8,8,0,0,0-2.77-2.94,11.9,11.9,0,0,0-4-1.53,25,25,0,0,0-4.63-.44H1484.6c-.19,0,0,31.39-.08,33.44a3.19,3.19,0,0,1-.3,1.64,2.53,2.53,0,0,1-1.1,1,4.74,4.74,0,0,1-1.58.44,8.27,8.27,0,0,1-1.73,0v.73h10.45V250.65h3.31l11.28,14.92a17,17,0,0,0,1.27,1.58,5.92,5.92,0,0,0,1.31,1.06,5.16,5.16,0,0,0,1.55.6,10.58,10.58,0,0,0,2.11.17A16.89,16.89,0,0,0,1516,268.26Z"/><path class="cls-2" d="M1265.82,239.84h-.63c.14-4.05-1.6-6.76-7-6.76-2.77,0-5.56,0-8.33,0a1.18,1.18,0,0,0-1,.5,1.7,1.7,0,0,0-.37,1.05v12.59h8.35c4,0,5.3-1.9,5.3-5.35h.67v12.53h-.7c.24-4-1.89-5.41-5.52-5.41h-8.07l0,16.32H1258c6,0,8.2-1.06,10.35-6.94l.63.26-2.81,8.64-27.89,0v-.75a16.42,16.42,0,0,0,2.12-.12,3.51,3.51,0,0,0,1.51-.53,2.52,2.52,0,0,0,.91-1.19,6.1,6.1,0,0,0,.3-2.13V231.06h22.65Z"/><path class="cls-3" d="M1265.82,239.84h-.63c.14-4.05-1.6-6.76-7-6.76-2.77,0-5.56,0-8.33,0a1.18,1.18,0,0,0-1,.5,1.7,1.7,0,0,0-.37,1.05v12.59h8.35c4,0,5.3-1.9,5.3-5.35h.67v12.53h-.7c.24-4-1.89-5.41-5.52-5.41h-8.07l0,16.32H1258c6,0,8.2-1.06,10.35-6.94l.63.26-2.81,8.64-27.89,0v-.75a16.42,16.42,0,0,0,2.12-.12,3.51,3.51,0,0,0,1.51-.53,2.52,2.52,0,0,0,.91-1.19,6.1,6.1,0,0,0,.3-2.13V231.06h22.65Z"/><path class="cls-2" d="M1437.47,239.84h-.63c.14-4.05-1.6-6.76-7-6.76-2.77,0-5.56,0-8.33,0a1.18,1.18,0,0,0-1,.5,1.78,1.78,0,0,0-.38,1.05v12.59h8.36c4,0,5.3-1.9,5.3-5.35h.67v12.53h-.7c.24-4-1.89-5.41-5.54-5.41h-8l0,16.32h9.49c6,0,8.2-1.06,10.36-6.94l.62.26-2.81,8.64-27.89,0v-.75a16.42,16.42,0,0,0,2.12-.12,3.6,3.6,0,0,0,1.52-.53,2.57,2.57,0,0,0,.9-1.19,6.1,6.1,0,0,0,.3-2.13V231.06h22.66Z"/><path class="cls-3" d="M1437.47,239.84h-.63c.14-4.05-1.6-6.76-7-6.76-2.77,0-5.56,0-8.33,0a1.18,1.18,0,0,0-1,.5,1.78,1.78,0,0,0-.38,1.05v12.59h8.36c4,0,5.3-1.9,5.3-5.35h.67v12.53h-.7c.24-4-1.89-5.41-5.54-5.41h-8l0,16.32h9.49c6,0,8.2-1.06,10.36-6.94l.62.26-2.81,8.64-27.89,0v-.75a16.42,16.42,0,0,0,2.12-.12,3.6,3.6,0,0,0,1.52-.53,2.57,2.57,0,0,0,.9-1.19,6.1,6.1,0,0,0,.3-2.13V231.06h22.66Z"/><path class="cls-2" d="M1578.87,239.84h-.61c.13-4.05-1.6-6.76-7-6.76-2.77,0-5.54,0-8.31,0a1.13,1.13,0,0,0-1,.5,1.66,1.66,0,0,0-.38,1.05v12.59H1570c4,0,5.3-1.9,5.3-5.35h.66v12.53h-.69c.23-4-1.89-5.41-5.53-5.41h-8.06l0,16.32h9.47c6,0,8.2-1.06,10.36-6.94l.64.26-2.83,8.64-27.88,0v-.75a16.26,16.26,0,0,0,2.11-.12,3.46,3.46,0,0,0,1.52-.53,2.4,2.4,0,0,0,.91-1.19,6.35,6.35,0,0,0,.3-2.13V231.06h22.66Z"/><path class="cls-3" d="M1578.87,239.84h-.61c.13-4.05-1.6-6.76-7-6.76-2.77,0-5.54,0-8.31,0a1.13,1.13,0,0,0-1,.5,1.66,1.66,0,0,0-.38,1.05v12.59H1570c4,0,5.3-1.9,5.3-5.35h.66v12.53h-.69c.23-4-1.89-5.41-5.53-5.41h-8.06l0,16.32h9.47c6,0,8.2-1.06,10.36-6.94l.64.26-2.83,8.64-27.88,0v-.75a16.26,16.26,0,0,0,2.11-.12,3.46,3.46,0,0,0,1.52-.53,2.4,2.4,0,0,0,.91-1.19,6.35,6.35,0,0,0,.3-2.13V231.06h22.66Z"/><path class="cls-2" d="M1915,258.12l-.57-.15a14,14,0,0,1-3.51,5.5,8.64,8.64,0,0,1-6.07,2.07h-6.93a3.15,3.15,0,0,1-2.33-.63,3.62,3.62,0,0,1-.56-2.36V231c-1.82,0-3.65,0-5.47,0v37.41h22.13Z"/><path class="cls-3" d="M1915,258.12l-.57-.15a14,14,0,0,1-3.51,5.5,8.64,8.64,0,0,1-6.07,2.07h-6.93a3.15,3.15,0,0,1-2.33-.63,3.62,3.62,0,0,1-.56-2.36V231c-1.82,0-3.65,0-5.47,0v37.41h22.13Z"/><path class="cls-2" d="M931.18,258.12l-.56-.15a13.89,13.89,0,0,1-3.52,5.5,8.58,8.58,0,0,1-6,2.07h-6.95a3.19,3.19,0,0,1-2.34-.63,3.69,3.69,0,0,1-.55-2.36V231c-1.82,0-3.65,0-5.47,0v37.41h22.12Z"/><path class="cls-3" d="M931.18,258.12l-.56-.15a13.89,13.89,0,0,1-3.52,5.5,8.58,8.58,0,0,1-6,2.07h-6.95a3.19,3.19,0,0,1-2.34-.63,3.69,3.69,0,0,1-.55-2.36V231c-1.82,0-3.65,0-5.47,0v37.41h22.12Z"/><path class="cls-4" d="M865.05,94.15l-3,.18c.45-13.17-3.88-21.76-21.35-21.76-9,0-17.2,0-26.22,0-10,0-7.14,38.93-7.56,45.92h29.48c13,0,17.21-6.2,17.21-17.43h2.17v40.82h-2.25c.75-13.1-6.17-17.62-18-17.62h-28.5l-.12,53.21h33.12c18.43,0,23.37,3.59,31.52-15.63l.19,7.86-7.46,14.2-89.93.12.11-2.34c9.32,0,16.38-1.23,16.37-12.22L790.63,66H865Z"/><path class="cls-4" d="M541,66l-16.38.16-42,90.19L444.18,66.19H411.33v2.46c8,0,16.05,1.68,16.05,11.8v89.24a15,15,0,0,1-1.15,6.47,8,8,0,0,1-3.27,3.6,12.84,12.84,0,0,1-5,1.56,56,56,0,0,1-6.4.42v2.67h23.92V86.18l40.81,98.44L524.6,85.69l.2,98.62,16.1.1Z"/><path class="cls-4" d="M1397.23,66.44l-16.38.17-42,90.18L1300.4,66.61h-32.86v2.45c8,0,16,1.68,16,11.78v89.25a15,15,0,0,1-1.15,6.47,8,8,0,0,1-3.28,3.6,12.79,12.79,0,0,1-5,1.56,56.11,56.11,0,0,1-6.41.43v2.67h23.92V86.57L1332.49,185l48.3-98.95.22,98.64,16.08.1Z"/><path class="cls-4" d="M622.82,137.37l-36.17-.11,18.67-42.77Zm35.89,46.74L610,65.88l-44.82,103c-.71,1.64-1.51,3.22-2.27,4.79-1.69,3.51-5.14,8.12-9.47,8.12V184H582.2v-2.15c-6.36,0-12.84-.63-10-9.73s7.89-20.22,12.08-28.63l40.92.1c5.32,12.77,12.6,27.5,17.55,40.41Z"/><path class="cls-4" d="M957,76.37c-8.83-3.84-17.32-3.49-26.57-3.49a16.34,16.34,0,0,0-5.47.62,40.28,40.28,0,0,0-4.76,2.28c-6.2,3.07-2.54,87.88-3.24,99.68a54.13,54.13,0,0,0,39.3-.81C995.93,157.61,996.53,93.54,957,76.37Zm49.69,51.28c0,27.53-17.61,46.4-43.19,53.49a95.93,95.93,0,0,1-25.65,3.36H884V182a64,64,0,0,0,6.83-.32,12.31,12.31,0,0,0,5.09-1.57,7.6,7.6,0,0,0,3.12-3.87,19.48,19.48,0,0,0,1.07-7.22V66.18l37.06.21a89.74,89.74,0,0,1,25.72,3.4C989.71,77.36,1006.7,99.53,1006.7,127.65Z"/><path class="cls-4" d="M1111.24,125.48h-.16a105.47,105.47,0,0,1-1.62,17.76,61.64,61.64,0,0,1-5.71,17.43,38.65,38.65,0,0,1-11,13.28c-4.62,3.52-10.4,5.3-17.35,5.3s-12.55-1.78-17.11-5.3a38.93,38.93,0,0,1-10.92-13.36,63.62,63.62,0,0,1-5.77-17.52,98.18,98.18,0,0,1-1.72-17.59,99.12,99.12,0,0,1,1.72-17.76,61.4,61.4,0,0,1,5.77-17.35,38.84,38.84,0,0,1,11-13.2c4.61-3.52,10.4-5.3,17.35-5.3s12.54,1.78,17.1,5.3a39.09,39.09,0,0,1,10.92,13.28,63,63,0,0,1,5.79,17.43A100.21,100.21,0,0,1,1111.24,125.48Zm19.71.65a69,69,0,0,0-3.82-23A59,59,0,0,0,1116.21,84a51.74,51.74,0,0,0-40.16-18,55.39,55.39,0,0,0-23.13,4.64,52.28,52.28,0,0,0-17.52,12.7,56.85,56.85,0,0,0-11.16,18.9,67.78,67.78,0,0,0-3.91,23.22,66.74,66.74,0,0,0,3.83,22.64,59,59,0,0,0,10.92,19,52.52,52.52,0,0,0,17.1,13.11,50.69,50.69,0,0,0,22.56,4.89,55.15,55.15,0,0,0,22.89-4.64,54.05,54.05,0,0,0,17.76-12.63,56.89,56.89,0,0,0,11.5-18.72A64.53,64.53,0,0,0,1131,126.13Z"/><path class="cls-4" d="M1914.63,125.38h-.17a101.81,101.81,0,0,1-1.68,17.76,59.63,59.63,0,0,1-5.87,17.43,38.51,38.51,0,0,1-11.31,13.27q-7.12,5.31-17.86,5.3-10.56,0-17.61-5.3a38.87,38.87,0,0,1-11.23-13.35,62.42,62.42,0,0,1-6-17.51,95.93,95.93,0,0,1-1.76-17.6,96.66,96.66,0,0,1,1.76-17.76,60.11,60.11,0,0,1,6-17.35,39.06,39.06,0,0,1,11.32-13.2q7.13-5.29,17.85-5.29t17.61,5.29a39.06,39.06,0,0,1,11.23,13.28,61.43,61.43,0,0,1,6,17.44A96.62,96.62,0,0,1,1914.63,125.38Zm20.28.65a67.33,67.33,0,0,0-3.93-23,58.48,58.48,0,0,0-11.23-19.15A54.05,54.05,0,0,0,1902,70.8a55.19,55.19,0,0,0-23.56-4.89,58.76,58.76,0,0,0-23.8,4.64,53.92,53.92,0,0,0-18,12.71,56.38,56.38,0,0,0-11.47,18.9A68,68,0,0,0,1825,148a58.67,58.67,0,0,0,11.24,19,54.36,54.36,0,0,0,17.59,13.12,53.59,53.59,0,0,0,23.24,4.88,58.21,58.21,0,0,0,23.54-4.64,55.69,55.69,0,0,0,18.28-12.62A56.61,56.61,0,0,0,1930.72,149,62.59,62.59,0,0,0,1934.91,126Z"/><path class="cls-5" d="M1202.51,165.05c-7.13,7.7-20.61,13.27-30.69,7.6a23.08,23.08,0,0,1-6.63-5.59,27.16,27.16,0,0,1-4.4-7.76,24.72,24.72,0,0,1-1.59-8.62,22.15,22.15,0,0,1,1.59-8.4,27.33,27.33,0,0,1,4.33-7.19,39.08,39.08,0,0,1,6.08-5.91,70.36,70.36,0,0,1,7-4.88A264,264,0,0,0,1202.51,165.05Zm5.13-78a23.53,23.53,0,0,1-4.8,14.72,30,30,0,0,1-12.47,9.43q-2.23-5.61-3.91-11.19a40.38,40.38,0,0,1-1.68-11.68,37.22,37.22,0,0,1,.47-5.82,14.78,14.78,0,0,1,1.85-5.28,11,11,0,0,1,3.59-3.76,10.49,10.49,0,0,1,5.76-1.43,8.49,8.49,0,0,1,5,1.43,12.53,12.53,0,0,1,3.44,3.59,17.51,17.51,0,0,1,2.08,4.89A20.27,20.27,0,0,1,1207.64,87.05Zm46.32,80.8-.1-4.36c-2.06,9.46-12.27,10.76-19.93,7.73a30.43,30.43,0,0,1-6.55-3.6,37.63,37.63,0,0,1-5.76-5.11,31.82,31.82,0,0,1-3.93-5.3c5.73-9.31,10.22-19.6,15.68-29.15,1.91-3.36,3.25-5.78,4-7.28,1.27-2.44,1.38-4.48.31-6.07a6.57,6.57,0,0,0-4.31-2.95,6.79,6.79,0,0,0-5.28,1.12c-1.69,1.12-2.55,3.17-2.55,6.14,0,11.22-5,24.62-12,33.4-3.73-5.76-8-12.16-11.41-18a178.39,178.39,0,0,1-9.52-18.3,66.15,66.15,0,0,0,8.71-4.72,42,42,0,0,0,7.84-6.39,32.83,32.83,0,0,0,5.66-8.08,21.3,21.3,0,0,0,2.24-9.74,20.86,20.86,0,0,0-1.6-8.15,19.86,19.86,0,0,0-4.31-6.56,20.12,20.12,0,0,0-6.55-4.31,20.72,20.72,0,0,0-8.15-1.61,25.5,25.5,0,0,0-10.88,2.24,26.12,26.12,0,0,0-13.67,15,32,32,0,0,0-1.82,10.86A43.75,43.75,0,0,0,1171.9,107c1.23,4.22,2.49,8.18,3.76,11.92-3.73,2.44-7.46,4.93-11.18,7.43a66,66,0,0,0-10.16,8.39,40.58,40.58,0,0,0-7.42,10.39,29.12,29.12,0,0,0-2.88,13.27,26.35,26.35,0,0,0,2.16,10.71,25.73,25.73,0,0,0,5.82,8.47,26.93,26.93,0,0,0,8.64,5.51,28.23,28.23,0,0,0,10.71,2c12.66,0,27.5-6.17,35.94-15.47,1.92,1.91,2.66,3,4.75,4.92a61.89,61.89,0,0,0,6.47,5.2,33.44,33.44,0,0,0,7.19,3.75,23.4,23.4,0,0,0,8.31,1.43C1245.36,184.88,1252.43,179,1254,167.85Z"/><path class="cls-4" d="M1514.05,140.49V66.77h-7.58l-.22,70.12c0,10.32-.08,20.28-6.5,28.94a26.53,26.53,0,0,1-10.56,8.3q-6.62,3-16.3,3-16.12,0-23.71-8.63t-7.59-24.28V81.77c1.45-9.39,4.67-12.59,14.85-12.59V66.77H1409v2.41c9.51,0,15.91,3.31,16,13.18l.2,62.64c.07,18.51,9.69,32.33,27.31,37.2a68.33,68.33,0,0,0,18.16,2.33q21.61,0,32.83-11.21C1510.94,165.86,1514.05,154.91,1514.05,140.49Z"/><path class="cls-4" d="M1631.85,155.66l-2-.83c-6.88,20.13-17.57,22.23-33.24,22.23h-41.5l76-111.59-92.74.11-.07,6.65,63.38-.17L1526.18,184h98.36Z"/><path class="cls-4" d="M1747.86,155.66l-2-.83c-6.88,20.13-17.56,22.23-33.24,22.23h-41.49l76-111.59-92.74.11-.07,6.65,63.39-.17L1642.2,184h98.37Z"/><path class="cls-4" d="M763.33,160.18l0-3.65a52.44,52.44,0,0,1-17.21,15.68,45.67,45.67,0,0,1-22.76,5.73,41.14,41.14,0,0,1-19.44-4.44c-35.6-18.67-34.37-77.71-1.13-97.37a36.6,36.6,0,0,1,19-4.83,38.86,38.86,0,0,1,13.87,2.5,39.32,39.32,0,0,1,11.86,7,39.93,39.93,0,0,1,8.71,10.65,36.89,36.89,0,0,1,4.44,13.39l2.45.1V80.34l-2.45-.17c-2.46,3-3.4,3.66-6.21-.16a34.15,34.15,0,0,0-5.81-5.88,38,38,0,0,0-10.25-5.74q-6.45-2.58-17.1-2.58a67.33,67.33,0,0,0-23.47,4.52c-54.31,19.93-53,88.89-2.58,109.54A59.36,59.36,0,0,0,718,184.72,51,51,0,0,0,745,177.38C753,172.49,758.17,168.56,763.33,160.18Z"/><path class="cls-4" d="M1759.52,181.76v2.47h51.13v-2.47a63,63,0,0,1-7-.34,12.45,12.45,0,0,1-5.2-1.64,8.08,8.08,0,0,1-3.21-4,18.92,18.92,0,0,1-1.08-7.1V65.47h-17.81V168.72a18.19,18.19,0,0,1-1.15,7.1,8.4,8.4,0,0,1-3.39,4,13.21,13.21,0,0,1-5.36,1.64A63.71,63.71,0,0,1,1759.52,181.76Z"/><polygon class="cls-5" points="129.75 93.77 130.28 288.43 189.13 288.43 129.75 93.77"/><polygon class="cls-5" points="261.45 93.77 260.9 288.43 202.06 288.43 261.45 93.77"/><path class="cls-4" d="M88.53,61.55c.19,64-.31,144.6-.11,208.56-1.09,8.9-4.47,13.26-23.33,13v5.3l32.86,0,.16-226.84Z"/><path class="cls-4" d="M301.33,61.55c-.19,64,.29,144.6.1,208.56,1.11,8.9,4.47,13.26,23.34,13v5.3l-32.87,0-.16-226.84Z"/></svg>