<?xml version="1.0"?>
<svg xmlns="http://www.w3.org/2000/svg" xmlns:xlink="http://www.w3.org/1999/xlink" xmlns:svgjs="http://svgjs.com/svgjs" version="1.1" width="512" height="512" x="0" y="0" viewBox="0 0 497.064 497.064" style="enable-background:new 0 0 512 512" xml:space="preserve" class=""><g>
<rect xmlns="http://www.w3.org/2000/svg" x="80.532" y="64" width="16" height="16" fill="#0f265c" data-original="#000000" style=""/>
<rect xmlns="http://www.w3.org/2000/svg" x="80.532" y="32" width="248" height="16" fill="#0f265c" data-original="#000000" style=""/>
<rect xmlns="http://www.w3.org/2000/svg" x="112.532" y="64" width="216" height="16" fill="#0f265c" data-original="#000000" style=""/>
<rect xmlns="http://www.w3.org/2000/svg" x="312.532" y="96" width="16" height="16" fill="#0f265c" data-original="#000000" style=""/>
<rect xmlns="http://www.w3.org/2000/svg" x="80.532" y="96" width="216" height="16" fill="#0f265c" data-original="#000000" style=""/>
<path xmlns="http://www.w3.org/2000/svg" d="M448.532,100.888L356.052,0H48.532v456h50.072l-5.568,23.208l46.456-19.88l32.48,37.736L181.82,456h69.416l9.856,41.064  l32.48-37.736l46.456,19.88L334.46,456h114.072V100.888z M360.532,28.568L422.348,96h-61.816V28.568z M163.7,462.936l-19.728-22.928  l-27.952,11.96l27.384-114.112c4,3.96,8.36,7.544,12.952,10.816l-16.304,67.936l15.552,3.736l15.144-63.096  c5.352,2.64,10.928,4.856,16.744,6.552L163.7,462.936z M185.66,440l17.504-72.96c4.392,0.568,8.832,0.96,13.368,0.96  s8.976-0.392,13.36-0.96L247.404,440H185.66z M289.084,440.008l-19.728,22.928L245.564,363.8c5.816-1.696,11.392-3.92,16.736-6.552  l15.144,63.096l15.552-3.736l-16.304-67.936c4.592-3.272,8.952-6.856,12.952-10.816l27.384,114.112L289.084,440.008z M330.62,440  l-28.192-117.464c11.408-16.688,18.104-36.84,18.104-58.536c0-11.888-1.992-23.544-5.92-34.664l-15.088,5.328  c3.328,9.4,5.008,19.272,5.008,29.336c0,48.52-39.48,88-88,88s-88-39.48-88-88s39.48-88,88-88c25.232,0,49.288,10.856,66,29.792  l11.992-10.584C274.78,172.832,246.356,160,216.532,160c-57.344,0-104,46.656-104,104c0,21.696,6.696,41.848,18.104,58.536  L102.444,440H64.532V16h280v96h88v328H330.62z" fill="#0f265c" data-original="#000000" style=""/>
<path xmlns="http://www.w3.org/2000/svg" style="" d="M211.844,333.248l-62.624-62.624l33.936-33.936l28.688,28.688l140.688-140.688l33.936,33.936  L211.844,333.248z" fill="#71c6ff" data-original="#f0bc5e" class=""/>
<g xmlns="http://www.w3.org/2000/svg">
</g>
<g xmlns="http://www.w3.org/2000/svg">
</g>
<g xmlns="http://www.w3.org/2000/svg">
</g>
<g xmlns="http://www.w3.org/2000/svg">
</g>
<g xmlns="http://www.w3.org/2000/svg">
</g>
<g xmlns="http://www.w3.org/2000/svg">
</g>
<g xmlns="http://www.w3.org/2000/svg">
</g>
<g xmlns="http://www.w3.org/2000/svg">
</g>
<g xmlns="http://www.w3.org/2000/svg">
</g>
<g xmlns="http://www.w3.org/2000/svg">
</g>
<g xmlns="http://www.w3.org/2000/svg">
</g>
<g xmlns="http://www.w3.org/2000/svg">
</g>
<g xmlns="http://www.w3.org/2000/svg">
</g>
<g xmlns="http://www.w3.org/2000/svg">
</g>
<g xmlns="http://www.w3.org/2000/svg">
</g>
</g></svg>
